<svg xmlns="http://www.w3.org/2000/svg" width="2000" height="1200" viewBox="0 0 2000 1200" preserveAspectRatio="xMidYMid slice">
  <defs>
    <linearGradient id="sky" x1="0" y1="0" x2="0" y2="1">
      <stop offset="0%" stop-color="#b8c9e8" stop-opacity="0.28"/>
      <stop offset="55%" stop-color="#f2efe6" stop-opacity="0.16"/>
      <stop offset="100%" stop-color="#f2efe6" stop-opacity="0"/>
    </linearGradient>

    <radialGradient id="vignette" cx="55%" cy="40%" r="72%">
      <stop offset="0%" stop-color="#000" stop-opacity="0"/>
      <stop offset="100%" stop-color="#000" stop-opacity="0.18"/>
    </radialGradient>

    <radialGradient id="disc" cx="50%" cy="45%" r="55%">
      <stop offset="0%" stop-color="#c8a24a" stop-opacity="0.13"/>
      <stop offset="70%" stop-color="#c8a24a" stop-opacity="0.07150000000000001"/>
      <stop offset="100%" stop-color="#c8a24a" stop-opacity="0"/>
    </radialGradient>

    <linearGradient id="fog" x1="0" y1="0" x2="0" y2="1">
      <stop offset="0%" stop-color="#fff" stop-opacity="0"/>
      <stop offset="45%" stop-color="#fff" stop-opacity="0.22"/>
      <stop offset="70%" stop-color="#fff" stop-opacity="0.16"/>
      <stop offset="100%" stop-color="#fff" stop-opacity="0"/>
    </linearGradient>
  </defs>

  <rect width="2000" height="1200" fill="url(#sky)"/>
  <circle cx="1520" cy="260" r="220" fill="url(#disc)"/>

  <path d="M 0 1200 L 0.0 861.9 222.2 867.5 444.4 878.0 666.7 772.6 888.9 733.2 1111.1 778.7 1333.3 769.6 1555.6 856.2 1777.8 903.0 2000.0 861.5 L 2000 1200 Z" fill="#111827" opacity="0.1"/>
  <path d="M 0 1200 L 0.0 1026.1 222.2 1009.8 444.4 984.8 666.7 950.9 888.9 910.2 1111.1 916.9 1333.3 919.6 1555.6 958.3 1777.8 1007.6 2000.0 1006.6 L 2000 1200 Z" fill="#111827" opacity="0.06"/>

  <g fill="none" stroke="#c8a24a" stroke-width="1.4" opacity="0.07">
    <path d="M -80 760 C 380 700, 860 820, 1320 760 S 2080 700, 2480 760"/>
    <path d="M -80 820 C 420 760, 940 880, 1460 820 S 2140 760, 2480 820"/>
  </g>

  <rect y="560" width="2000" height="520" fill="url(#fog)"/>
  <path d="M 420 915 C 424 885, 442 869, 450 841" fill="none" stroke="#c8a24a" stroke-width="2.2" opacity="0.08" stroke-linecap="round"/>
  <rect width="2000" height="1200" fill="url(#vignette)"/>
</svg>
