<svg xmlns="http://www.w3.org/2000/svg" width="2000" height="1200" viewBox="0 0 2000 1200" preserveAspectRatio="xMidYMid slice">
  <defs>
    <linearGradient id="sky" x1="0" y1="0" x2="0" y2="1">
      <stop offset="0%" stop-color="#cfd7e6" stop-opacity="0.28"/>
      <stop offset="55%" stop-color="#f1f2f4" stop-opacity="0.16"/>
      <stop offset="100%" stop-color="#f1f2f4" stop-opacity="0"/>
    </linearGradient>

    <radialGradient id="vignette" cx="55%" cy="40%" r="72%">
      <stop offset="0%" stop-color="#000" stop-opacity="0"/>
      <stop offset="100%" stop-color="#000" stop-opacity="0.18"/>
    </radialGradient>

    <radialGradient id="disc" cx="50%" cy="45%" r="55%">
      <stop offset="0%" stop-color="#c8a24a" stop-opacity="0.13"/>
      <stop offset="70%" stop-color="#c8a24a" stop-opacity="0.07150000000000001"/>
      <stop offset="100%" stop-color="#c8a24a" stop-opacity="0"/>
    </radialGradient>

    <linearGradient id="fog" x1="0" y1="0" x2="0" y2="1">
      <stop offset="0%" stop-color="#fff" stop-opacity="0"/>
      <stop offset="45%" stop-color="#fff" stop-opacity="0.22"/>
      <stop offset="70%" stop-color="#fff" stop-opacity="0.16"/>
      <stop offset="100%" stop-color="#fff" stop-opacity="0"/>
    </linearGradient>
  </defs>

  <rect width="2000" height="1200" fill="url(#sky)"/>
  <circle cx="1520" cy="260" r="220" fill="url(#disc)"/>

  <path d="M 0 1200 L 0.0 851.4 222.2 854.1 444.4 894.0 666.7 835.5 888.9 766.1 1111.1 714.8 1333.3 772.9 1555.6 836.5 1777.8 887.5 2000.0 921.1 L 2000 1200 Z" fill="#111827" opacity="0.1"/>
  <path d="M 0 1200 L 0.0 956.2 222.2 997.5 444.4 989.7 666.7 962.8 888.9 888.4 1111.1 920.3 1333.3 936.0 1555.6 956.6 1777.8 1030.7 2000.0 971.4 L 2000 1200 Z" fill="#111827" opacity="0.06"/>

  <g fill="none" stroke="#c8a24a" stroke-width="1.4" opacity="0.07">
    <path d="M -80 760 C 380 700, 860 820, 1320 760 S 2080 700, 2480 760"/>
    <path d="M -80 820 C 420 760, 940 880, 1460 820 S 2140 760, 2480 820"/>
  </g>

  <rect y="560" width="2000" height="520" fill="url(#fog)"/>
  <path d="M 420 915 C 424 885, 442 869, 450 841" fill="none" stroke="#c8a24a" stroke-width="2.2" opacity="0.08" stroke-linecap="round"/>
  <rect width="2000" height="1200" fill="url(#vignette)"/>
</svg>
