<svg xmlns="http://www.w3.org/2000/svg" width="2000" height="1200" viewBox="0 0 2000 1200" preserveAspectRatio="xMidYMid slice">
  <defs>
    <linearGradient id="sky" x1="0" y1="0" x2="0" y2="1">
      <stop offset="0%" stop-color="#0a1a3a" stop-opacity="0.22"/>
      <stop offset="55%" stop-color="#0f1626" stop-opacity="0.12"/>
      <stop offset="100%" stop-color="#0f1626" stop-opacity="0"/>
    </linearGradient>

    <radialGradient id="vignette" cx="55%" cy="40%" r="72%">
      <stop offset="0%" stop-color="#000" stop-opacity="0"/>
      <stop offset="100%" stop-color="#000" stop-opacity="0.28"/>
    </radialGradient>

    <radialGradient id="disc" cx="50%" cy="45%" r="55%">
      <stop offset="0%" stop-color="#e0c070" stop-opacity="0.18"/>
      <stop offset="70%" stop-color="#e0c070" stop-opacity="0.099"/>
      <stop offset="100%" stop-color="#e0c070" stop-opacity="0"/>
    </radialGradient>

    <linearGradient id="fog" x1="0" y1="0" x2="0" y2="1">
      <stop offset="0%" stop-color="#fff" stop-opacity="0"/>
      <stop offset="45%" stop-color="#fff" stop-opacity="0.1"/>
      <stop offset="70%" stop-color="#fff" stop-opacity="0.08"/>
      <stop offset="100%" stop-color="#fff" stop-opacity="0"/>
    </linearGradient>
  </defs>

  <rect width="2000" height="1200" fill="url(#sky)"/>
  <circle cx="1520" cy="300" r="220" fill="url(#disc)"/>

  <path d="M 0 1200 L 0.0 907.2 222.2 903.7 444.4 959.8 666.7 914.0 888.9 788.9 1111.1 815.8 1333.3 869.0 1555.6 910.7 1777.8 906.5 2000.0 899.3 L 2000 1200 Z" fill="#000000" opacity="0.16"/>
  <path d="M 0 1200 L 0.0 1004.7 222.2 1030.6 444.4 1038.7 666.7 1020.6 888.9 956.7 1111.1 973.3 1333.3 974.6 1555.6 992.7 1777.8 1031.8 2000.0 1015.1 L 2000 1200 Z" fill="#000000" opacity="0.12"/>

  <g fill="none" stroke="#e0c070" stroke-width="1.4" opacity="0.09">
    <path d="M -80 760 C 380 700, 860 820, 1320 760 S 2080 700, 2480 760"/>
    <path d="M -80 820 C 420 760, 940 880, 1460 820 S 2140 760, 2480 820"/>
  </g>

  <rect y="560" width="2000" height="520" fill="url(#fog)"/>
  <path d="M 420 965 C 424 935, 442 919, 450 891" fill="none" stroke="#e0c070" stroke-width="2.2" opacity="0.08" stroke-linecap="round"/>
  <rect width="2000" height="1200" fill="url(#vignette)"/>
</svg>
