<svg xmlns="http://www.w3.org/2000/svg" width="2000" height="1200" viewBox="0 0 2000 1200" preserveAspectRatio="xMidYMid slice">
  <defs>
    <linearGradient id="sky" x1="0" y1="0" x2="0" y2="1">
      <stop offset="0%" stop-color="#0f1b33" stop-opacity="0.22"/>
      <stop offset="55%" stop-color="#0f1626" stop-opacity="0.12"/>
      <stop offset="100%" stop-color="#0f1626" stop-opacity="0"/>
    </linearGradient>

    <radialGradient id="vignette" cx="55%" cy="40%" r="72%">
      <stop offset="0%" stop-color="#000" stop-opacity="0"/>
      <stop offset="100%" stop-color="#000" stop-opacity="0.28"/>
    </radialGradient>

    <radialGradient id="disc" cx="50%" cy="45%" r="55%">
      <stop offset="0%" stop-color="#e0c070" stop-opacity="0.18"/>
      <stop offset="70%" stop-color="#e0c070" stop-opacity="0.099"/>
      <stop offset="100%" stop-color="#e0c070" stop-opacity="0"/>
    </radialGradient>

    <linearGradient id="fog" x1="0" y1="0" x2="0" y2="1">
      <stop offset="0%" stop-color="#fff" stop-opacity="0"/>
      <stop offset="45%" stop-color="#fff" stop-opacity="0.1"/>
      <stop offset="70%" stop-color="#fff" stop-opacity="0.08"/>
      <stop offset="100%" stop-color="#fff" stop-opacity="0"/>
    </linearGradient>
  </defs>

  <rect width="2000" height="1200" fill="url(#sky)"/>
  <circle cx="1520" cy="300" r="220" fill="url(#disc)"/>

  <path d="M 0 1200 L 0.0 890.1 222.2 946.7 444.4 876.8 666.7 874.2 888.9 830.1 1111.1 799.8 1333.3 793.9 1555.6 917.8 1777.8 915.5 2000.0 929.4 L 2000 1200 Z" fill="#000000" opacity="0.16"/>
  <path d="M 0 1200 L 0.0 1047.2 222.2 1034.7 444.4 1046.3 666.7 990.4 888.9 964.9 1111.1 937.2 1333.3 971.4 1555.6 1034.9 1777.8 1044.4 2000.0 1028.1 L 2000 1200 Z" fill="#000000" opacity="0.12"/>

  <g fill="none" stroke="#e0c070" stroke-width="1.4" opacity="0.09">
    <path d="M -80 760 C 380 700, 860 820, 1320 760 S 2080 700, 2480 760"/>
    <path d="M -80 820 C 420 760, 940 880, 1460 820 S 2140 760, 2480 820"/>
  </g>

  <rect y="560" width="2000" height="520" fill="url(#fog)"/>
  <path d="M 420 965 C 424 935, 442 919, 450 891" fill="none" stroke="#e0c070" stroke-width="2.2" opacity="0.08" stroke-linecap="round"/>
  <rect width="2000" height="1200" fill="url(#vignette)"/>
</svg>
