<svg xmlns="http://www.w3.org/2000/svg" width="2000" height="1200" viewBox="0 0 2000 1200" preserveAspectRatio="xMidYMid slice">
  <defs>
    <linearGradient id="mist" x1="0" y1="0" x2="0" y2="1">
      <stop offset="0%" stop-color="#1c2a4a" stop-opacity="0.0"/>
      <stop offset="55%" stop-color="#1c2a4a" stop-opacity="0.08"/>
      <stop offset="100%" stop-color="#1c2a4a" stop-opacity="0"/>
    </linearGradient>

    <filter id="soften" x="-20%" y="-20%" width="140%" height="140%">
      <feGaussianBlur stdDeviation="0.35" />
    </filter>
  </defs>

  <rect x="0" y="0" width="2000" height="1200" fill="url(#mist)"/>

  <path d="M-140 1060 C 120 1010 250 820 520 740 C 790 660 1020 520 1250 420 C 1380 360 1480 310 1620 240" fill="none" stroke="#1c2a4a" stroke-opacity="0.28" stroke-width="30" stroke-linecap="round"/>
  <path d="M-140 1060 C 120 1010 250 820 520 740 C 790 660 1020 520 1250 420 C 1380 360 1480 310 1620 240" fill="none" stroke="#c8a24a" stroke-opacity="0.22" stroke-width="8" stroke-linecap="round"/>

  <g fill="#6b8d4b" fill-opacity="0.16" filter="url(#soften)">
    <ellipse cx="360" cy="820" rx="18" ry="46" transform="rotate(-28 360 820)"/>
    <ellipse cx="605" cy="720" rx="16" ry="42" transform="rotate(-18 605 720)"/>
    <ellipse cx="820" cy="645" rx="16" ry="44" transform="rotate(10 820 645)"/>
    <ellipse cx="1030" cy="540" rx="14" ry="40" transform="rotate(16 1030 540)"/>
    <ellipse cx="1290" cy="418" rx="14" ry="40" transform="rotate(18 1290 418)"/>
  </g>

  <g fill="#d87088" fill-opacity="0.28" stroke="#1c2a4a" stroke-opacity="0.1" stroke-width="1.2">
    <g transform="translate(170 960) scale(1.25)">
      <ellipse cx="0" cy="-18" rx="12" ry="20" transform="rotate(0)"/>
      <ellipse cx="0" cy="-18" rx="12" ry="20" transform="rotate(72)"/>
      <ellipse cx="0" cy="-18" rx="12" ry="20" transform="rotate(144)"/>
      <ellipse cx="0" cy="-18" rx="12" ry="20" transform="rotate(216)"/>
      <ellipse cx="0" cy="-18" rx="12" ry="20" transform="rotate(288)"/>
      <circle cx="0" cy="0" r="6.5" fill="#c8a24a" fill-opacity="0.35" stroke="none"/>
    </g>
    <g transform="translate(260 900) scale(1.05)">
      <ellipse cx="0" cy="-18" rx="12" ry="20" transform="rotate(0)"/>
      <ellipse cx="0" cy="-18" rx="12" ry="20" transform="rotate(72)"/>
      <ellipse cx="0" cy="-18" rx="12" ry="20" transform="rotate(144)"/>
      <ellipse cx="0" cy="-18" rx="12" ry="20" transform="rotate(216)"/>
      <ellipse cx="0" cy="-18" rx="12" ry="20" transform="rotate(288)"/>
      <circle cx="0" cy="0" r="6.5" fill="#c8a24a" fill-opacity="0.35" stroke="none"/>
    </g>
    <g transform="translate(355 835) scale(1.25)">
      <ellipse cx="0" cy="-18" rx="12" ry="20" transform="rotate(0)"/>
      <ellipse cx="0" cy="-18" rx="12" ry="20" transform="rotate(72)"/>
      <ellipse cx="0" cy="-18" rx="12" ry="20" transform="rotate(144)"/>
      <ellipse cx="0" cy="-18" rx="12" ry="20" transform="rotate(216)"/>
      <ellipse cx="0" cy="-18" rx="12" ry="20" transform="rotate(288)"/>
      <circle cx="0" cy="0" r="6.5" fill="#c8a24a" fill-opacity="0.35" stroke="none"/>
    </g>
    <g transform="translate(480 770) scale(1.1)">
      <ellipse cx="0" cy="-18" rx="12" ry="20" transform="rotate(0)"/>
      <ellipse cx="0" cy="-18" rx="12" ry="20" transform="rotate(72)"/>
      <ellipse cx="0" cy="-18" rx="12" ry="20" transform="rotate(144)"/>
      <ellipse cx="0" cy="-18" rx="12" ry="20" transform="rotate(216)"/>
      <ellipse cx="0" cy="-18" rx="12" ry="20" transform="rotate(288)"/>
      <circle cx="0" cy="0" r="6.5" fill="#c8a24a" fill-opacity="0.35" stroke="none"/>
    </g>
    <g transform="translate(610 710) scale(1.35)">
      <ellipse cx="0" cy="-18" rx="12" ry="20" transform="rotate(0)"/>
      <ellipse cx="0" cy="-18" rx="12" ry="20" transform="rotate(72)"/>
      <ellipse cx="0" cy="-18" rx="12" ry="20" transform="rotate(144)"/>
      <ellipse cx="0" cy="-18" rx="12" ry="20" transform="rotate(216)"/>
      <ellipse cx="0" cy="-18" rx="12" ry="20" transform="rotate(288)"/>
      <circle cx="0" cy="0" r="6.5" fill="#c8a24a" fill-opacity="0.35" stroke="none"/>
    </g>
    <g transform="translate(760 660) scale(1.18)">
      <ellipse cx="0" cy="-18" rx="12" ry="20" transform="rotate(0)"/>
      <ellipse cx="0" cy="-18" rx="12" ry="20" transform="rotate(72)"/>
      <ellipse cx="0" cy="-18" rx="12" ry="20" transform="rotate(144)"/>
      <ellipse cx="0" cy="-18" rx="12" ry="20" transform="rotate(216)"/>
      <ellipse cx="0" cy="-18" rx="12" ry="20" transform="rotate(288)"/>
      <circle cx="0" cy="0" r="6.5" fill="#c8a24a" fill-opacity="0.35" stroke="none"/>
    </g>
    <g transform="translate(915 600) scale(1.3)">
      <ellipse cx="0" cy="-18" rx="12" ry="20" transform="rotate(0)"/>
      <ellipse cx="0" cy="-18" rx="12" ry="20" transform="rotate(72)"/>
      <ellipse cx="0" cy="-18" rx="12" ry="20" transform="rotate(144)"/>
      <ellipse cx="0" cy="-18" rx="12" ry="20" transform="rotate(216)"/>
      <ellipse cx="0" cy="-18" rx="12" ry="20" transform="rotate(288)"/>
      <circle cx="0" cy="0" r="6.5" fill="#c8a24a" fill-opacity="0.35" stroke="none"/>
    </g>
    <g transform="translate(1080 520) scale(1.15)">
      <ellipse cx="0" cy="-18" rx="12" ry="20" transform="rotate(0)"/>
      <ellipse cx="0" cy="-18" rx="12" ry="20" transform="rotate(72)"/>
      <ellipse cx="0" cy="-18" rx="12" ry="20" transform="rotate(144)"/>
      <ellipse cx="0" cy="-18" rx="12" ry="20" transform="rotate(216)"/>
      <ellipse cx="0" cy="-18" rx="12" ry="20" transform="rotate(288)"/>
      <circle cx="0" cy="0" r="6.5" fill="#c8a24a" fill-opacity="0.35" stroke="none"/>
    </g>
    <g transform="translate(1240 440) scale(1.1)">
      <ellipse cx="0" cy="-18" rx="12" ry="20" transform="rotate(0)"/>
      <ellipse cx="0" cy="-18" rx="12" ry="20" transform="rotate(72)"/>
      <ellipse cx="0" cy="-18" rx="12" ry="20" transform="rotate(144)"/>
      <ellipse cx="0" cy="-18" rx="12" ry="20" transform="rotate(216)"/>
      <ellipse cx="0" cy="-18" rx="12" ry="20" transform="rotate(288)"/>
      <circle cx="0" cy="0" r="6.5" fill="#c8a24a" fill-opacity="0.35" stroke="none"/>
    </g>
    <g transform="translate(1385 375) scale(1.18)">
      <ellipse cx="0" cy="-18" rx="12" ry="20" transform="rotate(0)"/>
      <ellipse cx="0" cy="-18" rx="12" ry="20" transform="rotate(72)"/>
      <ellipse cx="0" cy="-18" rx="12" ry="20" transform="rotate(144)"/>
      <ellipse cx="0" cy="-18" rx="12" ry="20" transform="rotate(216)"/>
      <ellipse cx="0" cy="-18" rx="12" ry="20" transform="rotate(288)"/>
      <circle cx="0" cy="0" r="6.5" fill="#c8a24a" fill-opacity="0.35" stroke="none"/>
    </g>
  </g>

  <g filter="url(#soften)">
    <g fill="#7a5aa8" fill-opacity="0.22">
      <ellipse cx="1700" cy="170" rx="24" ry="18" />
      <ellipse cx="1690" cy="210" rx="26" ry="20" />
      <ellipse cx="1710" cy="250" rx="22" ry="18" />
      <ellipse cx="1688" cy="290" rx="26" ry="22" />
      <ellipse cx="1712" cy="330" rx="22" ry="18" />
      <ellipse cx="1755" cy="210" rx="20" ry="16" />
      <ellipse cx="1765" cy="250" rx="22" ry="18" />
      <ellipse cx="1748" cy="290" rx="24" ry="20" />
      <ellipse cx="1768" cy="330" rx="22" ry="18" />
      <ellipse cx="1756" cy="370" rx="24" ry="20" />
      <ellipse cx="1650" cy="210" rx="20" ry="16" />
      <ellipse cx="1660" cy="250" rx="22" ry="18" />
      <ellipse cx="1648" cy="290" rx="24" ry="20" />
      <ellipse cx="1668" cy="330" rx="22" ry="18" />
      <ellipse cx="1656" cy="370" rx="24" ry="20" />
    </g>
    <path d="M1620 130 C 1690 150 1750 160 1830 150" fill="none" stroke="#c8a24a" stroke-opacity="0.22" stroke-width="6" stroke-linecap="round"/>
    <path d="M1670 140 C 1685 210 1685 300 1680 410" fill="none" stroke="#1c2a4a" stroke-opacity="0.1" stroke-width="3" stroke-linecap="round"/>
    <path d="M1738 150 C 1750 230 1755 320 1755 440" fill="none" stroke="#1c2a4a" stroke-opacity="0.1" stroke-width="3" stroke-linecap="round"/>
  </g>

  <g transform="translate(860 610) rotate(-8)">
    <ellipse cx="0" cy="0" rx="42" ry="26" fill="#1c2a4a" fill-opacity="0.18"/>
    <ellipse cx="34" cy="-18" rx="18" ry="14" fill="#1c2a4a" fill-opacity="0.18"/>
    <path d="M48 -18 L64 -12 L48 -6 Z" fill="#c8a24a" fill-opacity="0.35"/>
    <path d="M-10 -6 C 2 -26 24 -30 38 -14" fill="none" stroke="#c8a24a" stroke-opacity="0.26" stroke-width="3" stroke-linecap="round"/>
  </g>
</svg>
