<svg xmlns="http://www.w3.org/2000/svg" width="2000" height="1200" viewBox="0 0 2000 1200" preserveAspectRatio="xMidYMid slice">
  <defs>
    <linearGradient id="frost" x1="0" y1="0" x2="1" y2="1">
      <stop offset="0%" stop-color="#cfd7e6" stop-opacity="0.1"/>
      <stop offset="70%" stop-color="#cfd7e6" stop-opacity="0"/>
    </linearGradient>

    <filter id="soften" x="-20%" y="-20%" width="140%" height="140%">
      <feGaussianBlur stdDeviation="0.4" />
    </filter>
  </defs>

  <rect x="0" y="0" width="2000" height="1200" fill="url(#frost)"/>

  <path d="M-160 260 C 120 220 280 160 520 220 C 760 280 980 240 1180 180 C 1340 130 1500 120 1680 150" fill="none" stroke="#1c2a4a" stroke-opacity="0.18" stroke-width="28" stroke-linecap="round"/>
  <path d="M-160 260 C 120 220 280 160 520 220 C 760 280 980 240 1180 180 C 1340 130 1500 120 1680 150" fill="none" stroke="#c8a24a" stroke-opacity="0.18" stroke-width="7" stroke-linecap="round"/>

  <g filter="url(#soften)" fill="#9b2f50" fill-opacity="0.18">
    <g transform="translate(120 230) scale(1.1)">
      <ellipse cx="0" cy="-18" rx="12" ry="20" transform="rotate(0)"/>
      <ellipse cx="0" cy="-18" rx="12" ry="20" transform="rotate(72)"/>
      <ellipse cx="0" cy="-18" rx="12" ry="20" transform="rotate(144)"/>
      <ellipse cx="0" cy="-18" rx="12" ry="20" transform="rotate(216)"/>
      <ellipse cx="0" cy="-18" rx="12" ry="20" transform="rotate(288)"/>
      <circle cx="0" cy="0" r="6.2" fill="#c8a24a" fill-opacity="0.2"/>
    </g>
    <g transform="translate(260 210) scale(1.0)">
      <ellipse cx="0" cy="-18" rx="12" ry="20" transform="rotate(0)"/>
      <ellipse cx="0" cy="-18" rx="12" ry="20" transform="rotate(72)"/>
      <ellipse cx="0" cy="-18" rx="12" ry="20" transform="rotate(144)"/>
      <ellipse cx="0" cy="-18" rx="12" ry="20" transform="rotate(216)"/>
      <ellipse cx="0" cy="-18" rx="12" ry="20" transform="rotate(288)"/>
      <circle cx="0" cy="0" r="6.2" fill="#c8a24a" fill-opacity="0.2"/>
    </g>
    <g transform="translate(420 230) scale(1.15)">
      <ellipse cx="0" cy="-18" rx="12" ry="20" transform="rotate(0)"/>
      <ellipse cx="0" cy="-18" rx="12" ry="20" transform="rotate(72)"/>
      <ellipse cx="0" cy="-18" rx="12" ry="20" transform="rotate(144)"/>
      <ellipse cx="0" cy="-18" rx="12" ry="20" transform="rotate(216)"/>
      <ellipse cx="0" cy="-18" rx="12" ry="20" transform="rotate(288)"/>
      <circle cx="0" cy="0" r="6.2" fill="#c8a24a" fill-opacity="0.2"/>
    </g>
    <g transform="translate(580 250) scale(1.05)">
      <ellipse cx="0" cy="-18" rx="12" ry="20" transform="rotate(0)"/>
      <ellipse cx="0" cy="-18" rx="12" ry="20" transform="rotate(72)"/>
      <ellipse cx="0" cy="-18" rx="12" ry="20" transform="rotate(144)"/>
      <ellipse cx="0" cy="-18" rx="12" ry="20" transform="rotate(216)"/>
      <ellipse cx="0" cy="-18" rx="12" ry="20" transform="rotate(288)"/>
      <circle cx="0" cy="0" r="6.2" fill="#c8a24a" fill-opacity="0.2"/>
    </g>
    <g transform="translate(780 265) scale(1.12)">
      <ellipse cx="0" cy="-18" rx="12" ry="20" transform="rotate(0)"/>
      <ellipse cx="0" cy="-18" rx="12" ry="20" transform="rotate(72)"/>
      <ellipse cx="0" cy="-18" rx="12" ry="20" transform="rotate(144)"/>
      <ellipse cx="0" cy="-18" rx="12" ry="20" transform="rotate(216)"/>
      <ellipse cx="0" cy="-18" rx="12" ry="20" transform="rotate(288)"/>
      <circle cx="0" cy="0" r="6.2" fill="#c8a24a" fill-opacity="0.2"/>
    </g>
    <g transform="translate(940 250) scale(1.02)">
      <ellipse cx="0" cy="-18" rx="12" ry="20" transform="rotate(0)"/>
      <ellipse cx="0" cy="-18" rx="12" ry="20" transform="rotate(72)"/>
      <ellipse cx="0" cy="-18" rx="12" ry="20" transform="rotate(144)"/>
      <ellipse cx="0" cy="-18" rx="12" ry="20" transform="rotate(216)"/>
      <ellipse cx="0" cy="-18" rx="12" ry="20" transform="rotate(288)"/>
      <circle cx="0" cy="0" r="6.2" fill="#c8a24a" fill-opacity="0.2"/>
    </g>
    <g transform="translate(1120 205) scale(1.08)">
      <ellipse cx="0" cy="-18" rx="12" ry="20" transform="rotate(0)"/>
      <ellipse cx="0" cy="-18" rx="12" ry="20" transform="rotate(72)"/>
      <ellipse cx="0" cy="-18" rx="12" ry="20" transform="rotate(144)"/>
      <ellipse cx="0" cy="-18" rx="12" ry="20" transform="rotate(216)"/>
      <ellipse cx="0" cy="-18" rx="12" ry="20" transform="rotate(288)"/>
      <circle cx="0" cy="0" r="6.2" fill="#c8a24a" fill-opacity="0.2"/>
    </g>
    <g transform="translate(1280 165) scale(1.0)">
      <ellipse cx="0" cy="-18" rx="12" ry="20" transform="rotate(0)"/>
      <ellipse cx="0" cy="-18" rx="12" ry="20" transform="rotate(72)"/>
      <ellipse cx="0" cy="-18" rx="12" ry="20" transform="rotate(144)"/>
      <ellipse cx="0" cy="-18" rx="12" ry="20" transform="rotate(216)"/>
      <ellipse cx="0" cy="-18" rx="12" ry="20" transform="rotate(288)"/>
      <circle cx="0" cy="0" r="6.2" fill="#c8a24a" fill-opacity="0.2"/>
    </g>
    <g transform="translate(1460 155) scale(1.06)">
      <ellipse cx="0" cy="-18" rx="12" ry="20" transform="rotate(0)"/>
      <ellipse cx="0" cy="-18" rx="12" ry="20" transform="rotate(72)"/>
      <ellipse cx="0" cy="-18" rx="12" ry="20" transform="rotate(144)"/>
      <ellipse cx="0" cy="-18" rx="12" ry="20" transform="rotate(216)"/>
      <ellipse cx="0" cy="-18" rx="12" ry="20" transform="rotate(288)"/>
      <circle cx="0" cy="0" r="6.2" fill="#c8a24a" fill-opacity="0.2"/>
    </g>
  </g>

  <g transform="translate(980 258) rotate(-6)">
    <ellipse cx="0" cy="0" rx="40" ry="24" fill="#1c2a4a" fill-opacity="0.14"/>
    <ellipse cx="32" cy="-16" rx="16" ry="12" fill="#1c2a4a" fill-opacity="0.14"/>
    <path d="M46 -16 L60 -10 L46 -6 Z" fill="#c8a24a" fill-opacity="0.2"/>
    <path d="M-6 -4 C 10 -20 28 -22 40 -10" fill="none" stroke="#c8a24a" stroke-opacity="0.16" stroke-width="3" stroke-linecap="round"/>
  </g>

  <g transform="translate(1460 1120)">
    <g fill="none" stroke="#1c2a4a" stroke-opacity="0.12" stroke-width="8" stroke-linecap="round">
      <path d="M0 0 C 60 -180 120 -320 200 -520"/>
      <path d="M120 0 C 170 -160 250 -320 340 -520"/>
      <path d="M240 0 C 300 -170 380 -330 480 -520"/>
    </g>

    <g fill="#cfd7e6" fill-opacity="0.1">
      <path d="M30 -80 C 10 -260 80 -440 170 -640 C 190 -450 170 -260 100 -70 Z"/>
      <path d="M220 -70 C 200 -240 280 -430 380 -640 C 400 -460 380 -260 290 -60 Z"/>
      <path d="M410 -90 C 390 -270 470 -450 590 -660 C 600 -470 570 -270 470 -70 Z"/>
    </g>

    <g filter="url(#soften)">
      <g transform="translate(200 -520) scale(1.05) rotate(8)">
        <ellipse cx="0" cy="-14" rx="14" ry="26" transform="rotate(0)"/>
        <ellipse cx="0" cy="-14" rx="14" ry="26" transform="rotate(60)"/>
        <ellipse cx="0" cy="-14" rx="14" ry="26" transform="rotate(120)"/>
        <ellipse cx="0" cy="-14" rx="14" ry="26" transform="rotate(180)"/>
        <ellipse cx="0" cy="-14" rx="14" ry="26" transform="rotate(240)"/>
        <ellipse cx="0" cy="-14" rx="14" ry="26" transform="rotate(300)"/>
        <circle cx="0" cy="0" r="12" fill="#c8a24a" fill-opacity="0.16"/>
      </g>
      <g transform="translate(340 -520) scale(1.0) rotate(-10)">
        <ellipse cx="0" cy="-14" rx="14" ry="26" transform="rotate(0)"/>
        <ellipse cx="0" cy="-14" rx="14" ry="26" transform="rotate(60)"/>
        <ellipse cx="0" cy="-14" rx="14" ry="26" transform="rotate(120)"/>
        <ellipse cx="0" cy="-14" rx="14" ry="26" transform="rotate(180)"/>
        <ellipse cx="0" cy="-14" rx="14" ry="26" transform="rotate(240)"/>
        <ellipse cx="0" cy="-14" rx="14" ry="26" transform="rotate(300)"/>
        <circle cx="0" cy="0" r="12" fill="#c8a24a" fill-opacity="0.16"/>
      </g>
      <g transform="translate(480 -520) scale(0.95) rotate(12)">
        <ellipse cx="0" cy="-14" rx="14" ry="26" transform="rotate(0)"/>
        <ellipse cx="0" cy="-14" rx="14" ry="26" transform="rotate(60)"/>
        <ellipse cx="0" cy="-14" rx="14" ry="26" transform="rotate(120)"/>
        <ellipse cx="0" cy="-14" rx="14" ry="26" transform="rotate(180)"/>
        <ellipse cx="0" cy="-14" rx="14" ry="26" transform="rotate(240)"/>
        <ellipse cx="0" cy="-14" rx="14" ry="26" transform="rotate(300)"/>
        <circle cx="0" cy="0" r="12" fill="#c8a24a" fill-opacity="0.16"/>
      </g>
      <g fill="#e9dba4" fill-opacity="0.14">
        <circle cx="200" cy="-520" r="40"/>
        <circle cx="340" cy="-520" r="40"/>
        <circle cx="480" cy="-520" r="40"/>
      </g>
    </g>
  </g>

  <path d="M-80 900 C 520 820 1120 900 1720 840 C 1880 820 2000 800 2140 780" fill="none" stroke="#c8a24a" stroke-opacity="0.12" stroke-width="8" stroke-linecap="round"/>
</svg>
