<svg xmlns="http://www.w3.org/2000/svg" width="2000" height="1200" viewBox="0 0 2000 1200" preserveAspectRatio="xMidYMid slice">
  <defs>
    <linearGradient id="mist" x1="0" y1="0" x2="0" y2="1">
      <stop offset="0%" stop-color="#9cc3ff" stop-opacity="0"/>
      <stop offset="55%" stop-color="#9cc3ff" stop-opacity="0.12"/>
      <stop offset="100%" stop-color="#9cc3ff" stop-opacity="0"/>
    </linearGradient>

    <filter id="soften" x="-20%" y="-20%" width="140%" height="140%">
      <feGaussianBlur stdDeviation="0.55" />
    </filter>
  </defs>

  <rect x="0" y="0" width="2000" height="1200" fill="url(#mist)"/>

  <g fill="none" stroke="#9cc3ff" stroke-opacity="0.1" stroke-width="6" stroke-linecap="round">
    <path d="M-80 980 C 420 900 860 1020 1320 940 C 1560 900 1760 860 2080 820"/>
    <path d="M-120 1040 C 360 980 860 1080 1300 1020 C 1580 980 1820 930 2120 900"/>
    <path d="M-140 1100 C 340 1040 840 1140 1260 1090 C 1560 1048 1840 1000 2140 980"/>
  </g>

  <g transform="translate(340 1080)">
    <g fill="none" stroke="#8be3d1" stroke-opacity="0.14" stroke-width="10" stroke-linecap="round">
      <path d="M0 0 C 60 -140 80 -320 120 -520"/>
      <path d="M80 0 C 130 -160 170 -350 220 -560"/>
      <path d="M160 0 C 220 -150 280 -340 340 -520"/>
      <path d="M240 0 C 310 -170 380 -350 460 -540"/>
    </g>

    <g filter="url(#soften)">
      <g transform="translate(120 -520) rotate(-8)">
        <path d="M0 0 C -70 -130 -70 -300 0 -420 C 70 -300 70 -130 0 0 Z"
          fill="#d1b4ff" fill-opacity="0.14"/>
        <path d="M0 0 C -38 -80 -38 -200 0 -290 C 38 -200 38 -80 0 0 Z"
          fill="#e7c66b" fill-opacity="0.14"/>
      </g>
      <g transform="translate(230 -560) rotate(6)">
        <path d="M0 0 C -70 -130 -70 -300 0 -420 C 70 -300 70 -130 0 0 Z"
          fill="#d1b4ff" fill-opacity="0.14"/>
        <path d="M0 0 C -38 -80 -38 -200 0 -290 C 38 -200 38 -80 0 0 Z"
          fill="#e7c66b" fill-opacity="0.14"/>
      </g>
      <g transform="translate(360 -520) rotate(14)">
        <path d="M0 0 C -70 -130 -70 -300 0 -420 C 70 -300 70 -130 0 0 Z"
          fill="#d1b4ff" fill-opacity="0.14"/>
        <path d="M0 0 C -38 -80 -38 -200 0 -290 C 38 -200 38 -80 0 0 Z"
          fill="#e7c66b" fill-opacity="0.14"/>
      </g>
      <g transform="translate(470 -540) rotate(-14)">
        <path d="M0 0 C -70 -130 -70 -300 0 -420 C 70 -300 70 -130 0 0 Z"
          fill="#d1b4ff" fill-opacity="0.14"/>
        <path d="M0 0 C -38 -80 -38 -200 0 -290 C 38 -200 38 -80 0 0 Z"
          fill="#e7c66b" fill-opacity="0.14"/>
      </g>
    </g>

    <g fill="#8be3d1" fill-opacity="0.08">
      <path d="M40 -160 C 0 -320 60 -520 140 -700 C 170 -520 140 -320 80 -140 Z"/>
      <path d="M220 -120 C 190 -310 260 -520 350 -720 C 380 -540 350 -320 280 -110 Z"/>
      <path d="M410 -160 C 380 -340 450 -540 560 -760 C 580 -560 550 -340 470 -150 Z"/>
    </g>
  </g>

  <g transform="translate(1540 240) rotate(-8)">
    <path d="M0 0 C 80 -60 160 -70 240 -10 C 160 -20 100 40 40 90 C 60 40 50 10 0 0 Z"
      fill="#eef0f4" fill-opacity="0.1"/>
    <path d="M80 10 C 140 0 190 20 240 60" fill="none" stroke="#e7c66b" stroke-opacity="0.18" stroke-width="4" stroke-linecap="round"/>
  </g>

  <g transform="translate(980 520) rotate(12)" filter="url(#soften)">
    <path d="M0 0 L120 -20" stroke="#eef0f4" stroke-opacity="0.1" stroke-width="4" stroke-linecap="round"/>
    <ellipse cx="50" cy="-28" rx="70" ry="26" fill="#9cc3ff" fill-opacity="0.08"/>
    <ellipse cx="58" cy="10" rx="70" ry="26" fill="#9cc3ff" fill-opacity="0.08"/>
    <circle cx="0" cy="0" r="10" fill="#e7c66b" fill-opacity="0.14"/>
  </g>
</svg>
