<svg xmlns="http://www.w3.org/2000/svg" width="2000" height="1200" viewBox="0 0 2000 1200" preserveAspectRatio="xMidYMid slice">
  <defs>
    <radialGradient id="moon" cx="0.72" cy="0.28" r="0.34">
      <stop offset="0%" stop-color="#c8a24a" stop-opacity="0.22"/>
      <stop offset="65%" stop-color="#c8a24a" stop-opacity="0.1"/>
      <stop offset="100%" stop-color="#c8a24a" stop-opacity="0"/>
    </radialGradient>

    <filter id="soften" x="-20%" y="-20%" width="140%" height="140%">
      <feGaussianBlur stdDeviation="0.45" />
    </filter>
  </defs>

  <rect x="0" y="0" width="2000" height="1200" fill="url(#moon)"/>

  <g transform="translate(1320 1140)">
    <g fill="none" stroke="#1c2a4a" stroke-opacity="0.14" stroke-width="6" stroke-linecap="round">
      <path d="M0 0 C 120 -160 190 -340 260 -560"/>
      <path d="M80 0 C 210 -170 330 -340 430 -520"/>
      <path d="M-60 0 C 40 -140 80 -320 120 -520"/>
    </g>

    <g fill="#b78632" fill-opacity="0.1">
      <ellipse cx="70" cy="-180" rx="22" ry="40" transform="rotate(-18 70 -180)"/>
      <ellipse cx="120" cy="-240" rx="22" ry="40" transform="rotate(12 120 -240)"/>
      <ellipse cx="200" cy="-320" rx="22" ry="40" transform="rotate(-10 200 -320)"/>
      <ellipse cx="260" cy="-380" rx="22" ry="40" transform="rotate(16 260 -380)"/>
      <ellipse cx="310" cy="-460" rx="22" ry="40" transform="rotate(-6 310 -460)"/>
      <ellipse cx="180" cy="-210" rx="22" ry="40" transform="rotate(18 180 -210)"/>
      <ellipse cx="260" cy="-260" rx="22" ry="40" transform="rotate(-14 260 -260)"/>
      <ellipse cx="340" cy="-320" rx="22" ry="40" transform="rotate(10 340 -320)"/>
      <ellipse cx="400" cy="-380" rx="22" ry="40" transform="rotate(-8 400 -380)"/>
      <ellipse cx="460" cy="-440" rx="22" ry="40" transform="rotate(14 460 -440)"/>
      <ellipse cx="20" cy="-240" rx="22" ry="40" transform="rotate(-14 20 -240)"/>
      <ellipse cx="60" cy="-320" rx="22" ry="40" transform="rotate(10 60 -320)"/>
      <ellipse cx="120" cy="-380" rx="22" ry="40" transform="rotate(-8 120 -380)"/>
    </g>

    <g filter="url(#soften)" fill="#8d4a7a" fill-opacity="0.18">
      <g transform="translate(160 -260) scale(1.0)">
        <ellipse cx="0" cy="-10" rx="10" ry="16" transform="rotate(0)"/>
        <ellipse cx="0" cy="-10" rx="10" ry="16" transform="rotate(120)"/>
        <ellipse cx="0" cy="-10" rx="10" ry="16" transform="rotate(240)"/>
        <circle cx="0" cy="0" r="4.8" fill="#c8a24a" fill-opacity="0.16"/>
      </g>
      <g transform="translate(240 -340) scale(1.1)">
        <ellipse cx="0" cy="-10" rx="10" ry="16" transform="rotate(0)"/>
        <ellipse cx="0" cy="-10" rx="10" ry="16" transform="rotate(120)"/>
        <ellipse cx="0" cy="-10" rx="10" ry="16" transform="rotate(240)"/>
        <circle cx="0" cy="0" r="4.8" fill="#c8a24a" fill-opacity="0.16"/>
      </g>
      <g transform="translate(320 -420) scale(1.0)">
        <ellipse cx="0" cy="-10" rx="10" ry="16" transform="rotate(0)"/>
        <ellipse cx="0" cy="-10" rx="10" ry="16" transform="rotate(120)"/>
        <ellipse cx="0" cy="-10" rx="10" ry="16" transform="rotate(240)"/>
        <circle cx="0" cy="0" r="4.8" fill="#c8a24a" fill-opacity="0.16"/>
      </g>
      <g transform="translate(400 -500) scale(1.1)">
        <ellipse cx="0" cy="-10" rx="10" ry="16" transform="rotate(0)"/>
        <ellipse cx="0" cy="-10" rx="10" ry="16" transform="rotate(120)"/>
        <ellipse cx="0" cy="-10" rx="10" ry="16" transform="rotate(240)"/>
        <circle cx="0" cy="0" r="4.8" fill="#c8a24a" fill-opacity="0.16"/>
      </g>
      <g transform="translate(470 -560) scale(0.95)">
        <ellipse cx="0" cy="-10" rx="10" ry="16" transform="rotate(0)"/>
        <ellipse cx="0" cy="-10" rx="10" ry="16" transform="rotate(120)"/>
        <ellipse cx="0" cy="-10" rx="10" ry="16" transform="rotate(240)"/>
        <circle cx="0" cy="0" r="4.8" fill="#c8a24a" fill-opacity="0.16"/>
      </g>
      <g transform="translate(280 -250) scale(0.9)">
        <ellipse cx="0" cy="-10" rx="10" ry="16" transform="rotate(0)"/>
        <ellipse cx="0" cy="-10" rx="10" ry="16" transform="rotate(120)"/>
        <ellipse cx="0" cy="-10" rx="10" ry="16" transform="rotate(240)"/>
        <circle cx="0" cy="0" r="4.8" fill="#c8a24a" fill-opacity="0.16"/>
      </g>
      <g transform="translate(380 -320) scale(0.95)">
        <ellipse cx="0" cy="-10" rx="10" ry="16" transform="rotate(0)"/>
        <ellipse cx="0" cy="-10" rx="10" ry="16" transform="rotate(120)"/>
        <ellipse cx="0" cy="-10" rx="10" ry="16" transform="rotate(240)"/>
        <circle cx="0" cy="0" r="4.8" fill="#c8a24a" fill-opacity="0.16"/>
      </g>
      <g transform="translate(460 -390) scale(0.9)">
        <ellipse cx="0" cy="-10" rx="10" ry="16" transform="rotate(0)"/>
        <ellipse cx="0" cy="-10" rx="10" ry="16" transform="rotate(120)"/>
        <ellipse cx="0" cy="-10" rx="10" ry="16" transform="rotate(240)"/>
        <circle cx="0" cy="0" r="4.8" fill="#c8a24a" fill-opacity="0.16"/>
      </g>
      <g transform="translate(120 -350) scale(0.95)">
        <ellipse cx="0" cy="-10" rx="10" ry="16" transform="rotate(0)"/>
        <ellipse cx="0" cy="-10" rx="10" ry="16" transform="rotate(120)"/>
        <ellipse cx="0" cy="-10" rx="10" ry="16" transform="rotate(240)"/>
        <circle cx="0" cy="0" r="4.8" fill="#c8a24a" fill-opacity="0.16"/>
      </g>
      <g transform="translate(210 -470) scale(0.9)">
        <ellipse cx="0" cy="-10" rx="10" ry="16" transform="rotate(0)"/>
        <ellipse cx="0" cy="-10" rx="10" ry="16" transform="rotate(120)"/>
        <ellipse cx="0" cy="-10" rx="10" ry="16" transform="rotate(240)"/>
        <circle cx="0" cy="0" r="4.8" fill="#c8a24a" fill-opacity="0.16"/>
      </g>
    </g>

    <g transform="translate(260 -520) rotate(10)">
      <ellipse cx="0" cy="0" rx="40" ry="24" fill="#1c2a4a" fill-opacity="0.14"/>
      <ellipse cx="32" cy="-16" rx="16" ry="12" fill="#1c2a4a" fill-opacity="0.14"/>
      <path d="M46 -16 L60 -10 L46 -6 Z" fill="#c8a24a" fill-opacity="0.22"/>
      <path d="M-6 -4 C 10 -20 28 -22 40 -10" fill="none" stroke="#c8a24a" stroke-opacity="0.18" stroke-width="3" stroke-linecap="round"/>
    </g>
  </g>

  <g filter="url(#soften)" fill="#c24a32" fill-opacity="0.1">
    <path d="M240 220 L260 250 L300 252 L270 276 L280 316 L250 292 L216 312 L230 276 L200 250 L240 248 Z"/>
    <path d="M380 140 L398 168 L430 170 L406 190 L414 220 L390 204 L362 218 L372 190 L348 168 L380 166 Z"/>
  </g>

  <path d="M-40 740 C 520 700 1080 720 1640 690 C 1820 680 1960 670 2060 660" fill="none" stroke="#c8a24a" stroke-opacity="0.14" stroke-width="6" stroke-linecap="round"/>
</svg>
