<svg xmlns="http://www.w3.org/2000/svg" width="1200" height="1200" viewBox="0 0 1200 1200">
  <rect width="1200" height="1200" fill="none"/>
  <g>
    <line x1="0.0" y1="0" x2="0.0" y2="1200" stroke="#c8a24a" stroke-width="1.12" opacity="0.047"/><line x1="240.0" y1="0" x2="240.0" y2="1200" stroke="#c8a24a" stroke-width="1.24" opacity="0.072"/><line x1="480.0" y1="0" x2="480.0" y2="1200" stroke="#c8a24a" stroke-width="1.69" opacity="0.063"/><line x1="720.0" y1="0" x2="720.0" y2="1200" stroke="#c8a24a" stroke-width="1.01" opacity="0.048"/><line x1="960.0" y1="0" x2="960.0" y2="1200" stroke="#c8a24a" stroke-width="1.04" opacity="0.064"/>
    <line x1="-106.6" y1="1052.3" x2="998.8" y2="978.7" stroke="#c8a24a" stroke-width="0.94" opacity="0.040"/><line x1="-38.7" y1="572.8" x2="1158.6" y2="605.8" stroke="#c8a24a" stroke-width="1.06" opacity="0.029"/><line x1="-10.7" y1="412.1" x2="1109.2" y2="489.7" stroke="#c8a24a" stroke-width="1.17" opacity="0.038"/>
  </g>
  <g>
    <polyline points="-80.0,240.0 160.0,293.5 400.0,225.3 640.0,223.1 880.0,229.2 1120.0,226.6 1360.0,263.7 1360.0,198.5" fill="none" stroke="#d87088" stroke-width="1.38" opacity="0.076" stroke-linecap="square" stroke-linejoin="miter"/><polyline points="-80.0,520.0 160.0,495.3 400.0,443.5 640.0,552.7 880.0,441.5 1120.0,530.3 1360.0,464.5 1360.0,475.3" fill="none" stroke="#d87088" stroke-width="1.21" opacity="0.058" stroke-linecap="square" stroke-linejoin="miter"/><polyline points="-80.0,860.0 160.0,797.1 400.0,893.3 640.0,901.1 880.0,835.3 1120.0,887.4 1360.0,855.5 1360.0,859.8" fill="none" stroke="#d87088" stroke-width="1.63" opacity="0.067" stroke-linecap="square" stroke-linejoin="miter"/>
  </g>
  <g>
    <polygon points="320.0,166.5 453.5,300.0 320.0,433.5 186.5,300.0" fill="none" stroke="#c8a24a" stroke-width="1.00" opacity="0.031" stroke-linejoin="miter"/><polygon points="320.0,81.6 538.4,300.0 320.0,518.4 101.6,300.0" fill="none" stroke="#d87088" stroke-width="1.02" opacity="0.039" stroke-linejoin="miter"/><polygon points="320.0,-28.3 648.3,300.0 320.0,628.3 -8.3,300.0" fill="none" stroke="#c8a24a" stroke-width="1.47" opacity="0.056" stroke-linejoin="miter"/><polygon points="880.0,128.1 1011.9,260.0 880.0,391.9 748.1,260.0" fill="none" stroke="#c8a24a" stroke-width="1.39" opacity="0.054" stroke-linejoin="miter"/><polygon points="880.0,81.7 1058.3,260.0 880.0,438.3 701.7,260.0" fill="none" stroke="#d87088" stroke-width="1.40" opacity="0.032" stroke-linejoin="miter"/><polygon points="880.0,-70.6 1210.6,260.0 880.0,590.6 549.4,260.0" fill="none" stroke="#c8a24a" stroke-width="1.09" opacity="0.053" stroke-linejoin="miter"/><polygon points="740.0,653.1 866.9,780.0 740.0,906.9 613.1,780.0" fill="none" stroke="#c8a24a" stroke-width="1.44" opacity="0.032" stroke-linejoin="miter"/><polygon points="740.0,547.5 972.5,780.0 740.0,1012.5 507.5,780.0" fill="none" stroke="#d87088" stroke-width="1.48" opacity="0.056" stroke-linejoin="miter"/><polygon points="740.0,475.4 1044.6,780.0 740.0,1084.6 435.4,780.0" fill="none" stroke="#c8a24a" stroke-width="1.17" opacity="0.030" stroke-linejoin="miter"/><polygon points="420.0,802.6 537.4,920.0 420.0,1037.4 302.6,920.0" fill="none" stroke="#c8a24a" stroke-width="1.03" opacity="0.037" stroke-linejoin="miter"/><polygon points="420.0,701.8 638.2,920.0 420.0,1138.2 201.8,920.0" fill="none" stroke="#d87088" stroke-width="1.41" opacity="0.031" stroke-linejoin="miter"/><polygon points="420.0,625.0 715.0,920.0 420.0,1215.0 125.0,920.0" fill="none" stroke="#c8a24a" stroke-width="1.47" opacity="0.036" stroke-linejoin="miter"/>
    <polygon points="280.8,155.5 306.5,181.2 280.8,206.9 255.1,181.2" fill="none" stroke="#c8a24a" stroke-width="1.06" opacity="0.034" stroke-linejoin="miter"/><polygon points="765.6,1008.4 775.8,1018.6 765.6,1028.8 755.4,1018.6" fill="none" stroke="#c8a24a" stroke-width="1.33" opacity="0.048" stroke-linejoin="miter"/><polygon points="674.9,914.8 688.7,928.6 674.9,942.4 661.1,928.6" fill="none" stroke="#d87088" stroke-width="1.23" opacity="0.052" stroke-linejoin="miter"/><polygon points="638.2,396.1 663.2,421.1 638.2,446.1 613.2,421.1" fill="none" stroke="#d87088" stroke-width="1.24" opacity="0.066" stroke-linejoin="miter"/><polygon points="492.9,105.2 506.4,118.7 492.9,132.2 479.3,118.7" fill="none" stroke="#d87088" stroke-width="0.97" opacity="0.035" stroke-linejoin="miter"/><polygon points="429.9,442.4 447.1,459.5 429.9,476.7 412.7,459.5" fill="none" stroke="#c8a24a" stroke-width="1.24" opacity="0.057" stroke-linejoin="miter"/><polygon points="453.5,757.1 472.3,775.9 453.5,794.7 434.7,775.9" fill="none" stroke="#d87088" stroke-width="1.17" opacity="0.043" stroke-linejoin="miter"/><polygon points="790.0,839.7 803.8,853.6 790.0,867.4 776.1,853.6" fill="none" stroke="#d87088" stroke-width="1.13" opacity="0.042" stroke-linejoin="miter"/><polygon points="103.7,87.7 129.6,113.6 103.7,139.5 77.9,113.6" fill="none" stroke="#c8a24a" stroke-width="1.12" opacity="0.057" stroke-linejoin="miter"/><polygon points="350.5,802.0 375.7,827.2 350.5,852.4 325.3,827.2" fill="none" stroke="#c8a24a" stroke-width="1.13" opacity="0.069" stroke-linejoin="miter"/><polygon points="1055.9,106.3 1072.5,122.9 1055.9,139.5 1039.3,122.9" fill="none" stroke="#d87088" stroke-width="1.04" opacity="0.055" stroke-linejoin="miter"/><polygon points="214.9,843.2 238.6,866.9 214.9,890.6 191.2,866.9" fill="none" stroke="#d87088" stroke-width="1.25" opacity="0.041" stroke-linejoin="miter"/>
  </g>
</svg>
