<svg xmlns="http://www.w3.org/2000/svg" width="1200" height="1200" viewBox="0 0 1200 1200">
  <rect width="1200" height="1200" fill="none"/>
  <g>
    <line x1="0.0" y1="0" x2="0.0" y2="1200" stroke="#c8a24a" stroke-width="1.24" opacity="0.071"/><line x1="240.0" y1="0" x2="240.0" y2="1200" stroke="#c8a24a" stroke-width="1.17" opacity="0.048"/><line x1="480.0" y1="0" x2="480.0" y2="1200" stroke="#c8a24a" stroke-width="1.65" opacity="0.065"/><line x1="720.0" y1="0" x2="720.0" y2="1200" stroke="#c8a24a" stroke-width="1.19" opacity="0.041"/><line x1="960.0" y1="0" x2="960.0" y2="1200" stroke="#c8a24a" stroke-width="1.00" opacity="0.071"/>
    <line x1="-148.0" y1="749.1" x2="1050.7" y2="784.0" stroke="#c8a24a" stroke-width="1.24" opacity="0.037"/><line x1="-27.9" y1="429.4" x2="1275.8" y2="460.2" stroke="#c8a24a" stroke-width="1.06" opacity="0.034"/><line x1="36.0" y1="368.0" x2="1180.7" y2="384.5" stroke="#c8a24a" stroke-width="0.94" opacity="0.037"/>
  </g>
  <g>
    <polyline points="-80.0,240.0 160.0,282.3 400.0,285.9 640.0,205.3 880.0,228.1 1120.0,299.3 1360.0,219.0 1360.0,281.3" fill="none" stroke="#9b2f50" stroke-width="1.22" opacity="0.089" stroke-linecap="square" stroke-linejoin="miter"/><polyline points="-80.0,520.0 160.0,446.6 400.0,546.8 640.0,568.9 880.0,527.6 1120.0,541.2 1360.0,586.2 1360.0,567.6" fill="none" stroke="#9b2f50" stroke-width="1.21" opacity="0.076" stroke-linecap="square" stroke-linejoin="miter"/><polyline points="-80.0,860.0 160.0,777.2 400.0,838.1 640.0,796.1 880.0,798.8 1120.0,882.5 1360.0,785.2 1360.0,822.6" fill="none" stroke="#9b2f50" stroke-width="1.11" opacity="0.088" stroke-linecap="square" stroke-linejoin="miter"/>
  </g>
  <g>
    <polygon points="320.0,197.8 422.2,300.0 320.0,402.2 217.8,300.0" fill="none" stroke="#c8a24a" stroke-width="1.36" opacity="0.048" stroke-linejoin="miter"/><polygon points="320.0,124.9 495.1,300.0 320.0,475.1 144.9,300.0" fill="none" stroke="#9b2f50" stroke-width="1.27" opacity="0.045" stroke-linejoin="miter"/><polygon points="320.0,-22.1 642.1,300.0 320.0,622.1 -2.1,300.0" fill="none" stroke="#c8a24a" stroke-width="1.36" opacity="0.038" stroke-linejoin="miter"/><polygon points="880.0,127.9 1012.1,260.0 880.0,392.1 747.9,260.0" fill="none" stroke="#c8a24a" stroke-width="1.45" opacity="0.055" stroke-linejoin="miter"/><polygon points="880.0,41.4 1098.6,260.0 880.0,478.6 661.4,260.0" fill="none" stroke="#9b2f50" stroke-width="1.26" opacity="0.045" stroke-linejoin="miter"/><polygon points="880.0,-85.8 1225.8,260.0 880.0,605.8 534.2,260.0" fill="none" stroke="#c8a24a" stroke-width="1.37" opacity="0.047" stroke-linejoin="miter"/><polygon points="740.0,688.6 831.4,780.0 740.0,871.4 648.6,780.0" fill="none" stroke="#c8a24a" stroke-width="1.24" opacity="0.042" stroke-linejoin="miter"/><polygon points="740.0,545.8 974.2,780.0 740.0,1014.2 505.8,780.0" fill="none" stroke="#9b2f50" stroke-width="1.05" opacity="0.047" stroke-linejoin="miter"/><polygon points="740.0,500.1 1019.9,780.0 740.0,1059.9 460.1,780.0" fill="none" stroke="#c8a24a" stroke-width="1.30" opacity="0.054" stroke-linejoin="miter"/><polygon points="420.0,799.4 540.6,920.0 420.0,1040.6 299.4,920.0" fill="none" stroke="#c8a24a" stroke-width="1.48" opacity="0.048" stroke-linejoin="miter"/><polygon points="420.0,728.5 611.5,920.0 420.0,1111.5 228.5,920.0" fill="none" stroke="#9b2f50" stroke-width="1.42" opacity="0.028" stroke-linejoin="miter"/><polygon points="420.0,603.5 736.5,920.0 420.0,1236.5 103.5,920.0" fill="none" stroke="#c8a24a" stroke-width="1.34" opacity="0.035" stroke-linejoin="miter"/>
    <polygon points="235.8,404.9 248.7,417.7 235.8,430.5 223.0,417.7" fill="none" stroke="#9b2f50" stroke-width="1.01" opacity="0.039" stroke-linejoin="miter"/><polygon points="329.4,911.4 340.7,922.8 329.4,934.1 318.1,922.8" fill="none" stroke="#9b2f50" stroke-width="0.93" opacity="0.050" stroke-linejoin="miter"/><polygon points="307.4,619.4 321.2,633.3 307.4,647.1 293.6,633.3" fill="none" stroke="#9b2f50" stroke-width="1.14" opacity="0.033" stroke-linejoin="miter"/><polygon points="1015.4,651.3 1031.7,667.6 1015.4,683.9 999.1,667.6" fill="none" stroke="#c8a24a" stroke-width="1.37" opacity="0.050" stroke-linejoin="miter"/><polygon points="485.7,278.1 501.8,294.2 485.7,310.3 469.6,294.2" fill="none" stroke="#c8a24a" stroke-width="1.21" opacity="0.041" stroke-linejoin="miter"/><polygon points="1030.4,188.3 1046.1,204.0 1030.4,219.7 1014.7,204.0" fill="none" stroke="#c8a24a" stroke-width="1.36" opacity="0.048" stroke-linejoin="miter"/><polygon points="72.0,648.9 88.8,665.7 72.0,682.5 55.2,665.7" fill="none" stroke="#9b2f50" stroke-width="1.07" opacity="0.065" stroke-linejoin="miter"/><polygon points="100.4,239.6 113.1,252.2 100.4,264.9 87.7,252.2" fill="none" stroke="#c8a24a" stroke-width="1.05" opacity="0.057" stroke-linejoin="miter"/><polygon points="789.2,56.0 806.2,73.0 789.2,90.0 772.2,73.0" fill="none" stroke="#9b2f50" stroke-width="1.30" opacity="0.050" stroke-linejoin="miter"/><polygon points="458.0,914.3 481.1,937.4 458.0,960.6 434.8,937.4" fill="none" stroke="#9b2f50" stroke-width="0.95" opacity="0.043" stroke-linejoin="miter"/><polygon points="397.9,519.3 414.8,536.1 397.9,553.0 381.1,536.1" fill="none" stroke="#c8a24a" stroke-width="1.24" opacity="0.068" stroke-linejoin="miter"/><polygon points="727.8,293.3 746.8,312.4 727.8,331.5 708.7,312.4" fill="none" stroke="#9b2f50" stroke-width="1.19" opacity="0.036" stroke-linejoin="miter"/>
  </g>
</svg>
