<svg xmlns="http://www.w3.org/2000/svg" width="1200" height="1200" viewBox="0 0 1200 1200">
  <rect width="1200" height="1200" fill="none"/>
  <g>
    <line x1="0.0" y1="0" x2="0.0" y2="1200" stroke="#c8a24a" stroke-width="0.99" opacity="0.062"/><line x1="240.0" y1="0" x2="240.0" y2="1200" stroke="#c8a24a" stroke-width="1.00" opacity="0.065"/><line x1="480.0" y1="0" x2="480.0" y2="1200" stroke="#c8a24a" stroke-width="1.73" opacity="0.053"/><line x1="720.0" y1="0" x2="720.0" y2="1200" stroke="#c8a24a" stroke-width="1.14" opacity="0.060"/><line x1="960.0" y1="0" x2="960.0" y2="1200" stroke="#c8a24a" stroke-width="0.96" opacity="0.059"/>
    <line x1="72.6" y1="618.8" x2="1469.3" y2="675.3" stroke="#c8a24a" stroke-width="1.05" opacity="0.030"/><line x1="-143.7" y1="897.8" x2="1184.7" y2="924.0" stroke="#c8a24a" stroke-width="1.08" opacity="0.035"/><line x1="-102.3" y1="629.2" x2="1030.0" y2="658.3" stroke="#c8a24a" stroke-width="1.15" opacity="0.038"/>
  </g>
  <g>
    <polyline points="-80.0,240.0 160.0,204.5 400.0,182.9 640.0,216.6 880.0,266.3 1120.0,241.4 1360.0,274.7 1360.0,234.2" fill="none" stroke="#20539d" stroke-width="1.34" opacity="0.091" stroke-linecap="square" stroke-linejoin="miter"/><polyline points="-80.0,520.0 160.0,466.7 400.0,473.2 640.0,534.2 880.0,541.0 1120.0,509.3 1360.0,529.3 1360.0,514.3" fill="none" stroke="#20539d" stroke-width="1.50" opacity="0.091" stroke-linecap="square" stroke-linejoin="miter"/><polyline points="-80.0,860.0 160.0,918.5 400.0,885.1 640.0,854.6 880.0,940.6 1120.0,850.5 1360.0,882.6 1360.0,899.8" fill="none" stroke="#20539d" stroke-width="1.51" opacity="0.071" stroke-linecap="square" stroke-linejoin="miter"/>
  </g>
  <g>
    <polygon points="320.0,172.8 447.2,300.0 320.0,427.2 192.8,300.0" fill="none" stroke="#c8a24a" stroke-width="1.31" opacity="0.045" stroke-linejoin="miter"/><polygon points="320.0,88.0 532.0,300.0 320.0,512.0 108.0,300.0" fill="none" stroke="#20539d" stroke-width="1.49" opacity="0.045" stroke-linejoin="miter"/><polygon points="320.0,-51.5 671.5,300.0 320.0,651.5 -31.5,300.0" fill="none" stroke="#c8a24a" stroke-width="1.20" opacity="0.058" stroke-linejoin="miter"/><polygon points="880.0,122.8 1017.2,260.0 880.0,397.2 742.8,260.0" fill="none" stroke="#c8a24a" stroke-width="1.43" opacity="0.056" stroke-linejoin="miter"/><polygon points="880.0,78.0 1062.0,260.0 880.0,442.0 698.0,260.0" fill="none" stroke="#20539d" stroke-width="1.19" opacity="0.036" stroke-linejoin="miter"/><polygon points="880.0,-7.2 1147.2,260.0 880.0,527.2 612.8,260.0" fill="none" stroke="#c8a24a" stroke-width="1.34" opacity="0.058" stroke-linejoin="miter"/><polygon points="740.0,679.3 840.7,780.0 740.0,880.7 639.3,780.0" fill="none" stroke="#c8a24a" stroke-width="1.11" opacity="0.041" stroke-linejoin="miter"/><polygon points="740.0,578.7 941.3,780.0 740.0,981.3 538.7,780.0" fill="none" stroke="#20539d" stroke-width="1.07" opacity="0.043" stroke-linejoin="miter"/><polygon points="740.0,453.7 1066.3,780.0 740.0,1106.3 413.7,780.0" fill="none" stroke="#c8a24a" stroke-width="1.11" opacity="0.031" stroke-linejoin="miter"/><polygon points="420.0,810.5 529.5,920.0 420.0,1029.5 310.5,920.0" fill="none" stroke="#c8a24a" stroke-width="1.08" opacity="0.041" stroke-linejoin="miter"/><polygon points="420.0,739.5 600.5,920.0 420.0,1100.5 239.5,920.0" fill="none" stroke="#20539d" stroke-width="1.16" opacity="0.051" stroke-linejoin="miter"/><polygon points="420.0,648.1 691.9,920.0 420.0,1191.9 148.1,920.0" fill="none" stroke="#c8a24a" stroke-width="1.21" opacity="0.036" stroke-linejoin="miter"/>
    <polygon points="263.1,359.0 285.0,380.9 263.1,402.8 241.2,380.9" fill="none" stroke="#20539d" stroke-width="1.13" opacity="0.062" stroke-linejoin="miter"/><polygon points="956.1,535.9 979.6,559.3 956.1,582.8 932.6,559.3" fill="none" stroke="#c8a24a" stroke-width="1.01" opacity="0.034" stroke-linejoin="miter"/><polygon points="243.6,897.1 259.9,913.3 243.6,929.6 227.4,913.3" fill="none" stroke="#c8a24a" stroke-width="1.38" opacity="0.067" stroke-linejoin="miter"/><polygon points="566.7,53.8 581.2,68.2 566.7,82.6 552.3,68.2" fill="none" stroke="#20539d" stroke-width="1.22" opacity="0.058" stroke-linejoin="miter"/><polygon points="1055.4,796.2 1080.7,821.6 1055.4,846.9 1030.0,821.6" fill="none" stroke="#c8a24a" stroke-width="1.14" opacity="0.063" stroke-linejoin="miter"/><polygon points="356.0,879.1 377.6,900.8 356.0,922.4 334.3,900.8" fill="none" stroke="#c8a24a" stroke-width="0.93" opacity="0.038" stroke-linejoin="miter"/><polygon points="1085.8,196.2 1103.0,213.5 1085.8,230.7 1068.5,213.5" fill="none" stroke="#c8a24a" stroke-width="1.14" opacity="0.065" stroke-linejoin="miter"/><polygon points="1091.8,416.5 1104.0,428.6 1091.8,440.8 1079.7,428.6" fill="none" stroke="#c8a24a" stroke-width="1.13" opacity="0.040" stroke-linejoin="miter"/><polygon points="209.3,50.4 228.6,69.8 209.3,89.1 190.0,69.8" fill="none" stroke="#20539d" stroke-width="1.18" opacity="0.067" stroke-linejoin="miter"/><polygon points="583.1,1078.6 594.2,1089.7 583.1,1100.7 572.0,1089.7" fill="none" stroke="#c8a24a" stroke-width="1.28" opacity="0.068" stroke-linejoin="miter"/><polygon points="93.4,588.3 112.3,607.2 93.4,626.1 74.5,607.2" fill="none" stroke="#c8a24a" stroke-width="1.14" opacity="0.041" stroke-linejoin="miter"/><polygon points="1035.0,987.0 1056.3,1008.2 1035.0,1029.4 1013.8,1008.2" fill="none" stroke="#c8a24a" stroke-width="1.18" opacity="0.033" stroke-linejoin="miter"/>
  </g>
</svg>
