<svg xmlns="http://www.w3.org/2000/svg" width="1200" height="1200" viewBox="0 0 1200 1200">
  <rect width="1200" height="1200" fill="none"/>
  <g>
    <line x1="0.0" y1="0" x2="0.0" y2="1200" stroke="#c8a24a" stroke-width="1.24" opacity="0.056"/><line x1="240.0" y1="0" x2="240.0" y2="1200" stroke="#c8a24a" stroke-width="1.17" opacity="0.066"/><line x1="480.0" y1="0" x2="480.0" y2="1200" stroke="#c8a24a" stroke-width="1.61" opacity="0.043"/><line x1="720.0" y1="0" x2="720.0" y2="1200" stroke="#c8a24a" stroke-width="1.13" opacity="0.044"/><line x1="960.0" y1="0" x2="960.0" y2="1200" stroke="#c8a24a" stroke-width="1.06" opacity="0.071"/>
    <line x1="183.7" y1="233.9" x2="1293.4" y2="167.3" stroke="#c8a24a" stroke-width="1.23" opacity="0.025"/><line x1="-100.9" y1="222.9" x2="1025.0" y2="228.6" stroke="#c8a24a" stroke-width="0.97" opacity="0.033"/><line x1="122.6" y1="814.1" x2="1352.0" y2="882.7" stroke="#c8a24a" stroke-width="1.13" opacity="0.042"/>
  </g>
  <g>
    <polyline points="-80.0,240.0 160.0,204.8 400.0,221.7 640.0,251.2 880.0,302.4 1120.0,256.6 1360.0,236.5 1360.0,219.1" fill="none" stroke="#c24a32" stroke-width="1.27" opacity="0.064" stroke-linecap="square" stroke-linejoin="miter"/><polyline points="-80.0,520.0 160.0,597.8 400.0,581.9 640.0,583.1 880.0,524.6 1120.0,553.3 1360.0,487.4 1360.0,518.2" fill="none" stroke="#c24a32" stroke-width="1.19" opacity="0.072" stroke-linecap="square" stroke-linejoin="miter"/><polyline points="-80.0,860.0 160.0,815.5 400.0,788.0 640.0,935.5 880.0,787.4 1120.0,916.3 1360.0,895.9 1360.0,815.7" fill="none" stroke="#c24a32" stroke-width="1.39" opacity="0.095" stroke-linecap="square" stroke-linejoin="miter"/>
  </g>
  <g>
    <polygon points="320.0,160.7 459.3,300.0 320.0,439.3 180.7,300.0" fill="none" stroke="#c8a24a" stroke-width="1.35" opacity="0.037" stroke-linejoin="miter"/><polygon points="320.0,90.6 529.4,300.0 320.0,509.4 110.6,300.0" fill="none" stroke="#c24a32" stroke-width="1.27" opacity="0.047" stroke-linejoin="miter"/><polygon points="320.0,-37.2 657.2,300.0 320.0,637.2 -17.2,300.0" fill="none" stroke="#c8a24a" stroke-width="1.20" opacity="0.054" stroke-linejoin="miter"/><polygon points="880.0,147.8 992.2,260.0 880.0,372.2 767.8,260.0" fill="none" stroke="#c8a24a" stroke-width="1.22" opacity="0.029" stroke-linejoin="miter"/><polygon points="880.0,37.5 1102.5,260.0 880.0,482.5 657.5,260.0" fill="none" stroke="#c24a32" stroke-width="1.32" opacity="0.056" stroke-linejoin="miter"/><polygon points="880.0,-6.5 1146.5,260.0 880.0,526.5 613.5,260.0" fill="none" stroke="#c8a24a" stroke-width="1.27" opacity="0.046" stroke-linejoin="miter"/><polygon points="740.0,658.9 861.1,780.0 740.0,901.1 618.9,780.0" fill="none" stroke="#c8a24a" stroke-width="1.29" opacity="0.049" stroke-linejoin="miter"/><polygon points="740.0,594.0 926.0,780.0 740.0,966.0 554.0,780.0" fill="none" stroke="#c24a32" stroke-width="1.19" opacity="0.043" stroke-linejoin="miter"/><polygon points="740.0,481.4 1038.6,780.0 740.0,1078.6 441.4,780.0" fill="none" stroke="#c8a24a" stroke-width="1.17" opacity="0.046" stroke-linejoin="miter"/><polygon points="420.0,796.2 543.8,920.0 420.0,1043.8 296.2,920.0" fill="none" stroke="#c8a24a" stroke-width="1.42" opacity="0.045" stroke-linejoin="miter"/><polygon points="420.0,727.1 612.9,920.0 420.0,1112.9 227.1,920.0" fill="none" stroke="#c24a32" stroke-width="1.49" opacity="0.038" stroke-linejoin="miter"/><polygon points="420.0,591.5 748.5,920.0 420.0,1248.5 91.5,920.0" fill="none" stroke="#c8a24a" stroke-width="1.46" opacity="0.034" stroke-linejoin="miter"/>
    <polygon points="452.5,931.7 463.0,942.2 452.5,952.7 442.0,942.2" fill="none" stroke="#c8a24a" stroke-width="1.34" opacity="0.068" stroke-linejoin="miter"/><polygon points="796.8,417.9 812.1,433.2 796.8,448.5 781.4,433.2" fill="none" stroke="#c8a24a" stroke-width="0.93" opacity="0.031" stroke-linejoin="miter"/><polygon points="1012.2,724.4 1024.8,737.1 1012.2,749.7 999.6,737.1" fill="none" stroke="#c24a32" stroke-width="1.04" opacity="0.065" stroke-linejoin="miter"/><polygon points="369.1,820.5 391.0,842.4 369.1,864.3 347.2,842.4" fill="none" stroke="#c24a32" stroke-width="1.03" opacity="0.051" stroke-linejoin="miter"/><polygon points="491.7,686.2 507.0,701.5 491.7,716.7 476.4,701.5" fill="none" stroke="#c8a24a" stroke-width="1.11" opacity="0.035" stroke-linejoin="miter"/><polygon points="896.5,1005.7 917.4,1026.6 896.5,1047.5 875.6,1026.6" fill="none" stroke="#c8a24a" stroke-width="1.34" opacity="0.067" stroke-linejoin="miter"/><polygon points="70.0,576.4 80.3,586.7 70.0,597.0 59.7,586.7" fill="none" stroke="#c24a32" stroke-width="1.02" opacity="0.048" stroke-linejoin="miter"/><polygon points="791.5,975.5 805.7,989.7 791.5,1003.9 777.3,989.7" fill="none" stroke="#c24a32" stroke-width="1.40" opacity="0.061" stroke-linejoin="miter"/><polygon points="654.4,170.5 665.2,181.4 654.4,192.2 643.5,181.4" fill="none" stroke="#c8a24a" stroke-width="1.16" opacity="0.064" stroke-linejoin="miter"/><polygon points="906.4,848.3 929.2,871.2 906.4,894.1 883.5,871.2" fill="none" stroke="#c24a32" stroke-width="1.02" opacity="0.047" stroke-linejoin="miter"/><polygon points="889.0,895.7 911.2,917.8 889.0,939.9 866.9,917.8" fill="none" stroke="#c8a24a" stroke-width="1.14" opacity="0.038" stroke-linejoin="miter"/><polygon points="780.0,747.7 798.2,765.9 780.0,784.1 761.7,765.9" fill="none" stroke="#c8a24a" stroke-width="1.39" opacity="0.068" stroke-linejoin="miter"/>
  </g>
</svg>
