<svg xmlns="http://www.w3.org/2000/svg" width="512" height="512" viewBox="0 0 512 512">
  <rect width="512" height="512" fill="none"/>
  <polygon points="137.6,132.3 135.4,134.5 130.6,138.0 125.1,135.0 121.5,131.8 124.9,127.0 130.0,125.1 135.3,125.8" fill="#b0842a" opacity="0.080"/><polygon points="166.3,496.9 159.6,514.9 145.1,513.9 135.9,505.1 142.8,495.2 150.4,490.8 156.2,491.8" fill="#b0842a" opacity="0.068"/><polygon points="401.6,350.4 396.0,355.6 385.2,353.7 386.7,345.8 395.5,343.0" fill="#b0842a" opacity="0.037"/><polygon points="285.4,498.9 281.6,507.1 271.3,509.7 269.1,501.6 269.6,492.1 276.3,483.2 286.9,486.7" fill="#b0842a" opacity="0.078"/><polygon points="421.8,186.1 417.8,202.0 402.9,195.7 402.5,179.4 417.1,175.1" fill="#b0842a" opacity="0.061"/><polygon points="494.6,168.7 485.7,180.9 477.3,173.9 468.0,161.7 484.1,158.3" fill="#b0842a" opacity="0.057"/><polygon points="216.2,190.7 208.2,203.6 196.3,205.8 188.4,196.7 187.1,188.8 190.2,181.6 197.6,170.1 211.6,175.6" fill="#b0842a" opacity="0.062"/><polygon points="42.7,138.8 44.1,156.4 34.0,154.2 15.5,150.6 12.7,144.0 20.0,129.7 32.9,129.2 45.4,130.3" fill="#b0842a" opacity="0.060"/><polygon points="152.9,505.5 147.3,513.7 139.2,521.9 132.8,507.8 131.4,500.2 139.1,493.2 148.4,490.7" fill="#b0842a" opacity="0.048"/><polygon points="315.1,232.7 305.7,238.7 299.0,234.5 297.0,223.1 305.7,225.4" fill="#b0842a" opacity="0.066"/><polygon points="234.9,458.7 231.5,469.3 221.7,472.1 217.9,460.3 224.0,454.3 234.1,450.8" fill="#b0842a" opacity="0.063"/><polygon points="401.7,370.6 398.4,375.6 392.9,376.5 389.2,374.6 384.2,366.9 389.3,364.8 392.0,361.0 399.9,364.2" fill="#b0842a" opacity="0.037"/><polygon points="45.3,489.1 31.7,500.7 23.5,493.0 22.0,484.8 32.1,478.2" fill="#b0842a" opacity="0.038"/><polygon points="255.0,432.2 253.6,440.2 244.0,445.1 236.7,438.0 237.5,429.0 245.3,422.8 250.4,426.4" fill="#b0842a" opacity="0.068"/>
  <circle cx="327.4" cy="12.8" r="0.97" fill="#c8a24a" opacity="0.079"/><circle cx="377.1" cy="346.5" r="2.02" fill="#c8a24a" opacity="0.061"/><circle cx="216.0" cy="15.3" r="0.87" fill="#c8a24a" opacity="0.116"/><circle cx="13.6" cy="101.8" r="1.60" fill="#c8a24a" opacity="0.121"/><circle cx="112.9" cy="301.7" r="1.88" fill="#c8a24a" opacity="0.051"/><circle cx="412.6" cy="357.4" r="1.08" fill="#c8a24a" opacity="0.070"/><circle cx="490.1" cy="172.3" r="0.66" fill="#c8a24a" opacity="0.063"/><circle cx="433.9" cy="309.1" r="1.87" fill="#c8a24a" opacity="0.145"/><circle cx="274.5" cy="498.2" r="1.14" fill="#c8a24a" opacity="0.122"/><circle cx="424.7" cy="316.7" r="1.96" fill="#c8a24a" opacity="0.125"/><circle cx="360.7" cy="23.5" r="0.89" fill="#c8a24a" opacity="0.088"/><circle cx="40.9" cy="119.2" r="0.67" fill="#c8a24a" opacity="0.086"/><circle cx="325.5" cy="186.8" r="1.13" fill="#c8a24a" opacity="0.077"/><circle cx="136.7" cy="479.6" r="1.60" fill="#c8a24a" opacity="0.129"/><circle cx="87.6" cy="373.3" r="0.78" fill="#c8a24a" opacity="0.099"/><circle cx="506.6" cy="327.7" r="1.45" fill="#c8a24a" opacity="0.139"/><circle cx="431.5" cy="397.3" r="0.89" fill="#c8a24a" opacity="0.054"/><circle cx="161.5" cy="137.1" r="0.86" fill="#c8a24a" opacity="0.173"/><circle cx="448.7" cy="161.1" r="1.61" fill="#c8a24a" opacity="0.101"/><circle cx="468.2" cy="234.9" r="0.95" fill="#c8a24a" opacity="0.082"/><circle cx="287.4" cy="134.5" r="1.49" fill="#c8a24a" opacity="0.167"/><circle cx="204.5" cy="112.3" r="2.20" fill="#c8a24a" opacity="0.116"/><circle cx="46.5" cy="24.1" r="0.69" fill="#c8a24a" opacity="0.132"/><circle cx="405.5" cy="216.1" r="0.61" fill="#c8a24a" opacity="0.100"/><circle cx="510.0" cy="270.9" r="2.15" fill="#c8a24a" opacity="0.162"/><circle cx="5.9" cy="369.0" r="1.66" fill="#c8a24a" opacity="0.120"/><circle cx="136.6" cy="328.2" r="0.69" fill="#c8a24a" opacity="0.107"/><circle cx="232.3" cy="488.4" r="1.99" fill="#c8a24a" opacity="0.084"/><circle cx="256.3" cy="91.5" r="2.05" fill="#c8a24a" opacity="0.163"/><circle cx="152.8" cy="327.1" r="1.54" fill="#c8a24a" opacity="0.070"/><circle cx="390.4" cy="276.2" r="1.82" fill="#c8a24a" opacity="0.119"/><circle cx="0.3" cy="166.0" r="0.53" fill="#c8a24a" opacity="0.171"/><circle cx="449.9" cy="425.8" r="1.02" fill="#c8a24a" opacity="0.058"/><circle cx="449.5" cy="484.8" r="0.65" fill="#c8a24a" opacity="0.113"/><circle cx="35.4" cy="389.4" r="1.80" fill="#c8a24a" opacity="0.067"/><circle cx="243.3" cy="281.5" r="0.95" fill="#c8a24a" opacity="0.163"/><circle cx="216.6" cy="108.4" r="1.42" fill="#c8a24a" opacity="0.145"/><circle cx="103.0" cy="159.6" r="2.19" fill="#c8a24a" opacity="0.134"/><circle cx="224.3" cy="265.0" r="0.71" fill="#c8a24a" opacity="0.079"/><circle cx="173.1" cy="301.2" r="0.89" fill="#c8a24a" opacity="0.079"/><circle cx="36.3" cy="323.1" r="0.89" fill="#c8a24a" opacity="0.168"/><circle cx="440.1" cy="36.3" r="0.90" fill="#c8a24a" opacity="0.137"/><circle cx="109.7" cy="67.7" r="2.09" fill="#c8a24a" opacity="0.124"/><circle cx="242.0" cy="401.7" r="1.87" fill="#c8a24a" opacity="0.075"/><circle cx="49.6" cy="220.7" r="1.22" fill="#c8a24a" opacity="0.111"/><circle cx="373.3" cy="344.8" r="2.17" fill="#c8a24a" opacity="0.063"/><circle cx="206.1" cy="173.7" r="1.96" fill="#c8a24a" opacity="0.082"/><circle cx="97.4" cy="229.7" r="1.22" fill="#c8a24a" opacity="0.086"/><circle cx="127.9" cy="472.7" r="1.25" fill="#c8a24a" opacity="0.162"/><circle cx="281.8" cy="25.9" r="2.20" fill="#c8a24a" opacity="0.159"/><circle cx="496.1" cy="474.3" r="1.94" fill="#c8a24a" opacity="0.072"/><circle cx="248.6" cy="109.4" r="1.18" fill="#c8a24a" opacity="0.058"/><circle cx="194.0" cy="504.5" r="0.95" fill="#c8a24a" opacity="0.152"/><circle cx="233.0" cy="216.6" r="2.13" fill="#c8a24a" opacity="0.179"/><circle cx="284.6" cy="367.8" r="0.76" fill="#c8a24a" opacity="0.089"/><circle cx="496.0" cy="296.5" r="1.42" fill="#c8a24a" opacity="0.147"/><circle cx="29.3" cy="299.1" r="1.35" fill="#c8a24a" opacity="0.161"/><circle cx="80.6" cy="491.9" r="0.64" fill="#c8a24a" opacity="0.074"/><circle cx="304.7" cy="345.7" r="0.90" fill="#c8a24a" opacity="0.066"/><circle cx="455.8" cy="126.1" r="1.51" fill="#c8a24a" opacity="0.131"/><circle cx="214.6" cy="298.8" r="1.39" fill="#c8a24a" opacity="0.172"/><circle cx="104.6" cy="366.7" r="0.91" fill="#c8a24a" opacity="0.101"/><circle cx="343.9" cy="153.6" r="1.04" fill="#c8a24a" opacity="0.148"/><circle cx="37.1" cy="234.6" r="2.20" fill="#c8a24a" opacity="0.179"/><circle cx="37.5" cy="109.1" r="0.95" fill="#c8a24a" opacity="0.171"/><circle cx="451.0" cy="450.2" r="1.13" fill="#c8a24a" opacity="0.071"/><circle cx="426.9" cy="360.2" r="1.54" fill="#c8a24a" opacity="0.178"/><circle cx="334.8" cy="4.0" r="1.89" fill="#c8a24a" opacity="0.089"/><circle cx="339.7" cy="480.7" r="0.73" fill="#c8a24a" opacity="0.065"/><circle cx="54.8" cy="283.3" r="0.96" fill="#c8a24a" opacity="0.129"/><circle cx="367.4" cy="104.2" r="1.58" fill="#c8a24a" opacity="0.084"/><circle cx="250.1" cy="463.5" r="1.94" fill="#c8a24a" opacity="0.062"/><circle cx="216.9" cy="141.7" r="0.51" fill="#c8a24a" opacity="0.150"/><circle cx="326.2" cy="134.1" r="1.76" fill="#c8a24a" opacity="0.122"/><circle cx="219.0" cy="5.0" r="0.63" fill="#c8a24a" opacity="0.165"/><circle cx="462.8" cy="279.3" r="1.92" fill="#c8a24a" opacity="0.126"/><circle cx="75.8" cy="65.3" r="1.02" fill="#c8a24a" opacity="0.167"/><circle cx="407.6" cy="440.7" r="2.03" fill="#c8a24a" opacity="0.077"/><circle cx="127.8" cy="52.6" r="1.83" fill="#c8a24a" opacity="0.165"/><circle cx="208.1" cy="317.8" r="0.76" fill="#c8a24a" opacity="0.171"/><circle cx="442.7" cy="499.8" r="1.88" fill="#c8a24a" opacity="0.165"/><circle cx="12.7" cy="377.1" r="1.06" fill="#c8a24a" opacity="0.171"/><circle cx="410.7" cy="442.4" r="1.88" fill="#c8a24a" opacity="0.085"/><circle cx="403.1" cy="55.3" r="1.98" fill="#c8a24a" opacity="0.162"/><circle cx="113.9" cy="418.1" r="1.28" fill="#c8a24a" opacity="0.090"/><circle cx="407.2" cy="116.5" r="0.54" fill="#c8a24a" opacity="0.075"/><circle cx="168.1" cy="442.5" r="2.14" fill="#c8a24a" opacity="0.086"/><circle cx="328.4" cy="204.6" r="2.17" fill="#c8a24a" opacity="0.120"/><circle cx="480.9" cy="59.1" r="2.15" fill="#c8a24a" opacity="0.073"/><circle cx="492.8" cy="135.9" r="0.68" fill="#c8a24a" opacity="0.106"/><circle cx="373.0" cy="160.6" r="1.53" fill="#c8a24a" opacity="0.116"/><circle cx="197.2" cy="295.2" r="0.93" fill="#c8a24a" opacity="0.142"/><circle cx="0.9" cy="473.9" r="1.42" fill="#c8a24a" opacity="0.144"/><circle cx="379.9" cy="343.4" r="1.12" fill="#c8a24a" opacity="0.059"/><circle cx="340.1" cy="169.1" r="1.03" fill="#c8a24a" opacity="0.160"/><circle cx="368.5" cy="153.8" r="1.03" fill="#c8a24a" opacity="0.103"/><circle cx="206.0" cy="151.4" r="0.72" fill="#c8a24a" opacity="0.105"/><circle cx="481.5" cy="346.8" r="2.03" fill="#c8a24a" opacity="0.130"/><circle cx="154.1" cy="280.5" r="0.50" fill="#c8a24a" opacity="0.087"/><circle cx="220.1" cy="297.0" r="1.61" fill="#c8a24a" opacity="0.110"/><circle cx="226.4" cy="109.4" r="1.30" fill="#c8a24a" opacity="0.167"/><circle cx="407.6" cy="86.9" r="0.64" fill="#c8a24a" opacity="0.117"/><circle cx="324.1" cy="171.6" r="1.89" fill="#c8a24a" opacity="0.148"/><circle cx="344.5" cy="115.0" r="0.84" fill="#c8a24a" opacity="0.053"/><circle cx="125.4" cy="243.3" r="1.94" fill="#c8a24a" opacity="0.059"/><circle cx="212.2" cy="322.4" r="0.83" fill="#c8a24a" opacity="0.141"/><circle cx="253.1" cy="124.9" r="1.62" fill="#c8a24a" opacity="0.051"/><circle cx="384.5" cy="394.3" r="0.68" fill="#c8a24a" opacity="0.105"/><circle cx="90.1" cy="490.5" r="1.38" fill="#c8a24a" opacity="0.057"/><circle cx="127.6" cy="434.3" r="1.28" fill="#c8a24a" opacity="0.154"/><circle cx="341.8" cy="505.8" r="1.51" fill="#c8a24a" opacity="0.174"/><circle cx="456.4" cy="313.7" r="1.72" fill="#c8a24a" opacity="0.116"/><circle cx="425.3" cy="280.5" r="2.03" fill="#c8a24a" opacity="0.147"/><circle cx="243.0" cy="132.7" r="0.92" fill="#c8a24a" opacity="0.133"/><circle cx="392.1" cy="266.9" r="1.57" fill="#c8a24a" opacity="0.086"/><circle cx="39.7" cy="146.3" r="0.96" fill="#c8a24a" opacity="0.092"/><circle cx="276.6" cy="70.8" r="0.89" fill="#c8a24a" opacity="0.140"/><circle cx="361.7" cy="32.9" r="1.19" fill="#c8a24a" opacity="0.121"/><circle cx="212.9" cy="105.9" r="1.21" fill="#c8a24a" opacity="0.168"/><circle cx="299.0" cy="356.1" r="1.96" fill="#c8a24a" opacity="0.150"/><circle cx="194.8" cy="3.0" r="1.10" fill="#c8a24a" opacity="0.148"/><circle cx="437.0" cy="488.2" r="1.21" fill="#c8a24a" opacity="0.147"/><circle cx="279.6" cy="308.9" r="0.87" fill="#c8a24a" opacity="0.079"/><circle cx="223.1" cy="14.9" r="1.07" fill="#c8a24a" opacity="0.138"/><circle cx="207.0" cy="84.5" r="1.29" fill="#c8a24a" opacity="0.067"/><circle cx="318.6" cy="13.8" r="1.17" fill="#c8a24a" opacity="0.123"/><circle cx="13.9" cy="329.1" r="0.73" fill="#c8a24a" opacity="0.110"/><circle cx="25.7" cy="194.1" r="0.86" fill="#c8a24a" opacity="0.092"/><circle cx="389.7" cy="194.1" r="1.78" fill="#c8a24a" opacity="0.158"/><circle cx="129.2" cy="41.9" r="0.53" fill="#c8a24a" opacity="0.120"/><circle cx="512.0" cy="179.2" r="1.61" fill="#c8a24a" opacity="0.152"/><circle cx="333.7" cy="386.2" r="2.11" fill="#c8a24a" opacity="0.076"/><circle cx="10.4" cy="78.0" r="0.71" fill="#c8a24a" opacity="0.137"/><circle cx="288.8" cy="111.6" r="1.69" fill="#c8a24a" opacity="0.150"/><circle cx="85.9" cy="310.9" r="1.77" fill="#c8a24a" opacity="0.065"/><circle cx="419.5" cy="493.9" r="0.68" fill="#c8a24a" opacity="0.053"/><circle cx="159.7" cy="346.8" r="2.13" fill="#c8a24a" opacity="0.102"/><circle cx="366.1" cy="38.9" r="1.67" fill="#c8a24a" opacity="0.132"/><circle cx="52.2" cy="395.5" r="1.95" fill="#c8a24a" opacity="0.128"/><circle cx="62.0" cy="503.7" r="1.83" fill="#c8a24a" opacity="0.095"/><circle cx="219.3" cy="189.7" r="1.36" fill="#c8a24a" opacity="0.094"/><circle cx="435.0" cy="421.0" r="0.68" fill="#c8a24a" opacity="0.175"/><circle cx="325.4" cy="424.3" r="1.70" fill="#c8a24a" opacity="0.107"/><circle cx="375.7" cy="494.3" r="0.96" fill="#c8a24a" opacity="0.155"/><circle cx="275.5" cy="247.6" r="1.24" fill="#c8a24a" opacity="0.145"/><circle cx="137.4" cy="436.1" r="1.91" fill="#c8a24a" opacity="0.061"/><circle cx="451.4" cy="124.9" r="1.29" fill="#c8a24a" opacity="0.129"/><circle cx="194.0" cy="14.7" r="1.95" fill="#c8a24a" opacity="0.074"/><circle cx="108.6" cy="408.5" r="1.08" fill="#c8a24a" opacity="0.164"/><circle cx="359.0" cy="141.4" r="0.52" fill="#c8a24a" opacity="0.173"/><circle cx="43.8" cy="368.7" r="1.33" fill="#c8a24a" opacity="0.149"/><circle cx="353.6" cy="330.7" r="1.33" fill="#c8a24a" opacity="0.153"/><circle cx="47.6" cy="113.5" r="1.68" fill="#c8a24a" opacity="0.090"/><circle cx="297.8" cy="242.3" r="1.40" fill="#c8a24a" opacity="0.105"/><circle cx="381.9" cy="169.4" r="1.69" fill="#c8a24a" opacity="0.085"/><circle cx="128.7" cy="61.8" r="0.83" fill="#c8a24a" opacity="0.066"/><circle cx="274.4" cy="390.2" r="0.81" fill="#c8a24a" opacity="0.078"/><circle cx="247.9" cy="371.0" r="2.16" fill="#c8a24a" opacity="0.118"/><circle cx="144.9" cy="51.5" r="0.83" fill="#c8a24a" opacity="0.080"/><circle cx="91.9" cy="7.2" r="1.41" fill="#c8a24a" opacity="0.086"/><circle cx="498.8" cy="283.3" r="1.69" fill="#c8a24a" opacity="0.066"/><circle cx="444.7" cy="251.3" r="1.98" fill="#c8a24a" opacity="0.125"/><circle cx="240.3" cy="225.5" r="0.81" fill="#c8a24a" opacity="0.057"/><circle cx="481.8" cy="244.6" r="1.90" fill="#c8a24a" opacity="0.102"/><circle cx="37.9" cy="322.3" r="0.59" fill="#c8a24a" opacity="0.069"/><circle cx="288.2" cy="155.6" r="2.19" fill="#c8a24a" opacity="0.065"/><circle cx="391.4" cy="310.4" r="1.84" fill="#c8a24a" opacity="0.079"/><circle cx="267.6" cy="230.7" r="1.25" fill="#c8a24a" opacity="0.162"/><circle cx="506.9" cy="156.4" r="1.56" fill="#c8a24a" opacity="0.129"/><circle cx="378.9" cy="485.2" r="0.85" fill="#c8a24a" opacity="0.077"/><circle cx="338.1" cy="80.4" r="0.80" fill="#c8a24a" opacity="0.060"/><circle cx="1.4" cy="230.7" r="1.51" fill="#c8a24a" opacity="0.088"/><circle cx="118.5" cy="362.0" r="1.70" fill="#c8a24a" opacity="0.109"/><circle cx="351.9" cy="473.0" r="1.84" fill="#c8a24a" opacity="0.131"/><circle cx="338.5" cy="478.0" r="1.22" fill="#c8a24a" opacity="0.121"/><circle cx="331.6" cy="465.1" r="1.91" fill="#c8a24a" opacity="0.059"/><circle cx="85.0" cy="157.5" r="1.77" fill="#c8a24a" opacity="0.124"/><circle cx="147.8" cy="63.7" r="1.67" fill="#c8a24a" opacity="0.141"/><circle cx="482.7" cy="256.2" r="1.34" fill="#c8a24a" opacity="0.060"/><circle cx="20.4" cy="221.2" r="1.05" fill="#c8a24a" opacity="0.083"/><circle cx="46.8" cy="492.5" r="1.92" fill="#c8a24a" opacity="0.125"/><circle cx="486.8" cy="511.8" r="1.64" fill="#c8a24a" opacity="0.085"/><circle cx="20.6" cy="387.2" r="1.30" fill="#c8a24a" opacity="0.135"/><circle cx="469.0" cy="92.9" r="1.50" fill="#c8a24a" opacity="0.133"/><circle cx="251.8" cy="46.7" r="1.09" fill="#c8a24a" opacity="0.093"/><circle cx="343.1" cy="439.2" r="1.06" fill="#c8a24a" opacity="0.140"/><circle cx="147.6" cy="483.9" r="1.88" fill="#c8a24a" opacity="0.122"/><circle cx="232.9" cy="161.0" r="1.05" fill="#c8a24a" opacity="0.176"/><circle cx="206.9" cy="263.5" r="2.18" fill="#c8a24a" opacity="0.135"/><circle cx="277.8" cy="211.6" r="0.82" fill="#c8a24a" opacity="0.097"/><circle cx="387.3" cy="320.2" r="1.79" fill="#c8a24a" opacity="0.076"/><circle cx="281.2" cy="475.0" r="1.24" fill="#c8a24a" opacity="0.141"/><circle cx="62.2" cy="498.3" r="1.54" fill="#c8a24a" opacity="0.081"/><circle cx="81.1" cy="282.0" r="1.44" fill="#c8a24a" opacity="0.062"/><circle cx="508.0" cy="467.4" r="1.28" fill="#c8a24a" opacity="0.065"/><circle cx="426.1" cy="255.2" r="1.72" fill="#c8a24a" opacity="0.116"/><circle cx="140.0" cy="427.4" r="2.17" fill="#c8a24a" opacity="0.082"/><circle cx="282.2" cy="196.4" r="2.07" fill="#c8a24a" opacity="0.116"/><circle cx="450.2" cy="442.4" r="0.97" fill="#c8a24a" opacity="0.153"/><circle cx="212.5" cy="478.3" r="1.36" fill="#c8a24a" opacity="0.157"/><circle cx="144.8" cy="152.9" r="1.50" fill="#c8a24a" opacity="0.180"/><circle cx="250.7" cy="76.1" r="1.42" fill="#c8a24a" opacity="0.095"/><circle cx="282.6" cy="278.2" r="1.27" fill="#c8a24a" opacity="0.092"/><circle cx="96.6" cy="357.1" r="1.47" fill="#c8a24a" opacity="0.080"/><circle cx="397.1" cy="22.3" r="1.77" fill="#c8a24a" opacity="0.142"/><circle cx="415.4" cy="197.7" r="1.63" fill="#c8a24a" opacity="0.157"/><circle cx="502.2" cy="253.6" r="0.56" fill="#c8a24a" opacity="0.115"/><circle cx="302.2" cy="445.3" r="1.99" fill="#c8a24a" opacity="0.107"/><circle cx="269.3" cy="233.9" r="1.73" fill="#c8a24a" opacity="0.103"/><circle cx="335.2" cy="79.0" r="1.30" fill="#c8a24a" opacity="0.176"/><circle cx="173.3" cy="354.7" r="1.60" fill="#c8a24a" opacity="0.161"/><circle cx="436.4" cy="440.0" r="1.15" fill="#c8a24a" opacity="0.091"/><circle cx="368.0" cy="388.8" r="1.98" fill="#c8a24a" opacity="0.055"/><circle cx="35.0" cy="323.2" r="2.07" fill="#c8a24a" opacity="0.180"/><circle cx="382.3" cy="222.2" r="0.67" fill="#c8a24a" opacity="0.132"/><circle cx="446.8" cy="227.2" r="1.68" fill="#c8a24a" opacity="0.167"/><circle cx="23.5" cy="407.6" r="1.00" fill="#c8a24a" opacity="0.099"/><circle cx="74.5" cy="272.0" r="1.46" fill="#c8a24a" opacity="0.153"/><circle cx="87.0" cy="40.4" r="1.98" fill="#c8a24a" opacity="0.131"/><circle cx="123.3" cy="467.4" r="0.74" fill="#c8a24a" opacity="0.110"/>
</svg>
